<svg width="417" height="297" viewBox="0 0 417 297" fill="none" xmlns="http://www.w3.org/2000/svg">
<path d="M0 99.0425L56.3046 197.98L0 296.755H56.1405L84.6636 247.222L113.187 296.755H169.32L56.1405 99.0425H0Z" fill="#F79839"/>
<path d="M400.757 160.51C395.309 153.653 388.613 147.804 380.834 142.515C377.489 140.239 373.938 138.062 370.216 135.949C364.148 132.51 357.595 129.249 350.614 125.994C322.69 113.147 310.182 107.34 299.757 96.1513C295.129 90.7839 292.648 84.7005 292.298 77.9151C292.27 77.3691 292.248 76.8161 292.248 76.2559C292.248 61.338 305.59 49.7312 321.841 49.7312C324.166 49.7312 326.405 49.8943 328.551 50.2063C336.545 51.3903 343.29 54.7795 348.795 60.3241L358.985 42.4637L374.922 14.528C362.372 5.89911 346.977 1.12735 328.751 0.184347C326.49 0.0638125 324.194 0 321.848 0C287.877 0 261.237 16.8607 248.594 42.4708C243.395 52.9998 240.564 65.0037 240.564 77.9222C240.564 98.0585 246.248 114.075 256.245 127.136C256.901 127.994 257.578 128.837 258.27 129.674C259.661 131.34 261.122 132.957 262.656 134.531C264.132 136.041 265.672 137.502 267.269 138.927C268.332 139.87 269.423 140.792 270.535 141.706C272.111 142.99 273.737 144.252 275.42 145.471C276.183 146.024 276.953 146.57 277.73 147.109C280.853 149.265 284.141 151.314 287.585 153.263C288.448 153.753 289.318 154.235 290.195 154.71C291.949 155.667 293.746 156.596 295.578 157.503L302.795 160.971L307.665 163.31C309.818 164.367 311.886 165.374 313.855 166.345C314.511 166.671 315.159 166.99 315.794 167.302C317.705 168.252 319.531 169.16 321.278 170.039C322.825 170.819 324.301 171.578 325.727 172.315C326.191 172.556 326.654 172.797 327.103 173.031C328.109 173.556 329.086 174.081 330.034 174.591C330.569 174.882 331.104 175.165 331.617 175.456C332.979 176.201 334.277 176.938 335.518 177.661C336.031 177.959 336.537 178.257 337.037 178.554C337.365 178.753 337.693 178.944 338.014 179.143C338.427 179.391 338.826 179.639 339.226 179.895C340.26 180.547 341.265 181.192 342.228 181.837C342.698 182.156 343.162 182.475 343.618 182.794C344.132 183.156 344.638 183.518 345.13 183.886C345.75 184.34 346.349 184.801 346.934 185.269C348.695 186.659 350.336 188.091 351.883 189.608C352.318 190.034 352.746 190.466 353.174 190.906C353.587 191.331 353.994 191.771 354.393 192.21C354.792 192.65 355.192 193.104 355.584 193.557C360.169 198.946 362.672 205.576 362.672 212.623C362.672 225.74 357.858 235.454 349.551 241.176C343.155 245.579 334.691 247.614 324.743 247.018C315.922 246.486 308.235 245.246 301.454 243.012L277.017 285.972C290.758 292.836 306.467 296.749 323.488 296.749C378.096 296.749 416.858 262.766 416.858 210.127C416.288 188.488 410.541 172.854 400.729 160.503L400.757 160.51Z" fill="#F3EDDE"/>
<path d="M114.513 96.1512L135.385 59.9058C116.246 26.0426 101.542 0 101.542 0H44.375C65.2682 36.5787 86.0757 73.0015 106.876 109.41L114.513 96.1512Z" fill="#F3EDDE"/>
<path d="M254.426 174.108C247.837 169.336 241.862 164.167 236.549 158.665C228.228 173.257 220.348 187.069 213.866 198.413C203.049 179.475 183.275 144.584 163.302 109.274L135.021 158.679C161.22 204.539 187.461 250.47 213.902 296.756C234.802 260.163 255.567 223.804 276.296 187.501C268.324 183.354 260.986 178.858 254.426 174.108Z" fill="#F3EDDE"/>
</svg>
