<svg width="48" height="32" viewBox="0 0 48 32" fill="none" xmlns="http://www.w3.org/2000/svg">
<path d="M19.6545 14.1778C20.648 13.6549 21.3979 13.0728 21.9076 12.4371C22.82 11.3017 23.2761 9.79747 23.2761 7.92967C23.2761 6.06186 22.8234 4.55759 21.9197 3.25747C20.4199 1.14074 17.8696 0.053724 14.2705 0H0V30.5994H13.3029C14.8044 30.5994 16.1936 30.4651 17.4757 30.1857C18.7577 29.91 19.8705 29.396 20.8139 28.6492C21.6485 28.001 22.3448 27.1969 22.9029 26.2406C23.7807 24.799 24.2195 23.1748 24.2195 21.3625C24.2195 19.5502 23.8342 18.1104 23.0688 16.8801C22.3016 15.6462 21.1629 14.7455 19.6545 14.1778ZM5.88857 5.31152H12.3111C13.7245 5.31152 14.889 5.47448 15.7996 5.79145C16.8554 6.24811 17.3858 7.19007 17.3858 8.61734C17.3858 9.89955 16.9867 10.7967 16.1867 11.3053C15.3867 11.8103 14.3465 12.0628 13.0644 12.0628H5.88857V5.31152ZM16.0484 24.7453C15.3366 25.1052 14.3378 25.2825 13.0575 25.2825H5.88857V17.1254H13.156C14.4225 17.1398 15.4057 17.3117 16.1055 17.6448C17.3599 18.2429 17.9854 19.3317 17.9854 20.9255C17.9854 22.8076 17.3426 24.0809 16.0484 24.7453Z" fill="white"/>
<path d="M30.6783 1.84273H42.5436V4.79756H30.6783V1.84273Z" fill="white"/>
<path d="M47.2693 16.3446C47.0032 14.5664 46.4209 13.0084 45.5276 11.6635C44.5341 10.1377 43.2762 9.02206 41.7522 8.31648C40.2317 7.61091 38.5194 7.25633 36.6187 7.25633C33.4187 7.25633 30.8165 8.30395 28.8122 10.3938C26.8079 12.4873 25.804 15.4922 25.804 19.4123C25.804 23.5938 26.9133 26.6149 29.1353 28.4702C31.3574 30.3254 33.9198 31.2531 36.8243 31.2531C40.344 31.2531 43.0844 30.1535 45.0403 27.9526C46.0632 26.8244 46.7198 25.7105 47.0136 24.6146H40.8814C40.655 24.9297 40.4148 25.2002 40.1505 25.4222C39.3401 26.1135 38.2844 26.4573 36.9816 26.4573C35.7548 26.4573 34.7094 26.1744 33.8351 25.6049C32.401 24.6916 31.6424 23.1013 31.5509 20.8306H47.4524C47.4818 18.8768 47.4179 17.3815 47.2676 16.3429L47.2693 16.3446ZM31.6926 16.9302C31.9016 15.4582 32.4062 14.2906 33.2131 13.4292C34.02 12.5678 35.1552 12.1345 36.6222 12.1345C37.9664 12.1345 39.0965 12.5392 40.0053 13.354C40.9142 14.167 41.4256 15.3597 41.5259 16.9302H31.6926Z" fill="white"/>
</svg>
