<?xml version="1.0" encoding="UTF-8"?>
<svg id="Layer_2" data-name="Layer 2" xmlns="http://www.w3.org/2000/svg" xmlns:xlink="http://www.w3.org/1999/xlink" viewBox="0 0 492.83 59.86">
  <defs>
    <style>
      .cls-1 {
        fill: #bbbcbf;
        fill-rule: evenodd;
      }

      .cls-2 {
        fill: #c7182a;
      }

      .cls-3 {
        fill: #166c9b;
      }

      .cls-4 {
        clip-path: url(#clippath-2);
      }

      .cls-5 {
        fill: #6d6e70;
      }

      .cls-6 {
        clip-path: url(#clippath);
      }
    </style>
    <clipPath id="clippath">
      <path class="cls-3" d="M156.51,43.53V11.49h21.67v6.11h-13.66v5.62h12.59v6.11h-12.59v8.09h13.66v6.11h-21.67ZM207.04,43.53h-8.83l-4.6-6.95-4.74,6.95h-8.64l8.89-12.08-8.74-12.08h8.83l4.53,6.82,4.53-6.82h8.67l-8.75,11.88,8.86,12.29h0ZM233.52,31.11h0c0,3.86-.98,6.97-2.94,9.34-1.95,2.36-4.37,3.55-7.24,3.55-1.2,0-2.25-.14-3.14-.41-.89-.27-1.84-.69-2.84-1.27v10.08h-7.53V19.36h7.53v2.52c1.1-.95,2.23-1.72,3.38-2.31,1.14-.59,2.47-.88,3.98-.88,2.8,0,4.97,1.11,6.5,3.33,1.53,2.23,2.3,5.25,2.3,9.08h0ZM225.82,31.26h0c0-2.35-.36-4.06-1.09-5.12-.72-1.06-1.85-1.59-3.39-1.59-.68,0-1.34.11-2.01.32-.67.21-1.32.54-1.97.97v12.16c.4.17.84.29,1.32.36.49.07,1.05.11,1.71.11,1.84,0,3.2-.6,4.08-1.8.89-1.2,1.34-3,1.34-5.41h0ZM249.94,44.18h0c-4.56,0-8.06-1.09-10.49-3.27-2.43-2.18-3.65-5.29-3.65-9.32s1.13-7.09,3.4-9.44c2.27-2.36,5.44-3.53,9.51-3.53,3.7,0,6.49,1,8.35,2.99,1.87,2,2.8,4.85,2.8,8.57v2.71h-16.51c.07,1.12.31,2.06.71,2.81.4.76.93,1.35,1.59,1.8.64.45,1.4.76,2.25.96.86.2,1.8.29,2.82.29.87,0,1.74-.1,2.58-.29.85-.19,1.62-.45,2.32-.76.62-.27,1.19-.57,1.71-.88.53-.32.96-.6,1.28-.84h.79v6.22c-.62.24-1.18.47-1.69.68-.51.2-1.21.42-2.1.63-.82.22-1.66.39-2.53.51-.87.13-1.93.19-3.17.19h0ZM252.44,28.34h0c-.05-1.59-.41-2.81-1.11-3.64-.7-.83-1.76-1.25-3.2-1.25s-2.61.44-3.44,1.31c-.82.87-1.28,2.07-1.37,3.58h9.11ZM279.97,26.48h-.62c-.29-.1-.71-.18-1.25-.23-.54-.05-1.15-.07-1.81-.07-.79,0-1.62.12-2.49.35-.87.23-1.71.5-2.53.81v16.19h-7.53v-24.17h7.53v3.46c.34-.32.82-.71,1.43-1.19.61-.48,1.17-.87,1.67-1.15.54-.33,1.18-.61,1.9-.85.73-.23,1.41-.35,2.06-.35.24,0,.52,0,.82.02.3.01.57.04.81.07v7.12h0ZM292.1,44h0c-3.07,0-5.3-.63-6.7-1.89-1.4-1.27-2.1-3.33-2.1-6.19v-11.3h-2.89v-5.25h2.89v-6.91h7.53v6.91h7.26v5.25h-7.26v8.56c0,.85,0,1.59.02,2.22.02.63.13,1.2.34,1.7.2.51.56.9,1.07,1.2.51.29,1.25.44,2.22.44.4,0,.93-.09,1.59-.26.65-.18,1.11-.33,1.37-.48h.65v5.32c-.82.21-1.69.38-2.61.51-.92.13-2.04.19-3.38.19h0ZM308.53,44.2h0c-1.78,0-3.47-.19-5.05-.58-1.59-.39-2.89-.84-3.93-1.36v-6.37h.62c.36.27.76.57,1.23.9.46.33,1.1.68,1.92,1.04.7.33,1.49.61,2.37.85.88.24,1.84.35,2.87.35s2-.16,2.81-.49c.81-.33,1.21-.86,1.21-1.57,0-.57-.19-.99-.56-1.27-.37-.29-1.09-.57-2.17-.82-.57-.14-1.3-.29-2.17-.46-.87-.16-1.65-.35-2.32-.57-1.9-.59-3.31-1.46-4.27-2.61-.96-1.16-1.43-2.67-1.43-4.56,0-1.07.25-2.09.74-3.05.49-.95,1.22-1.8,2.18-2.55.96-.73,2.15-1.31,3.56-1.74,1.41-.43,3-.65,4.78-.65s3.25.17,4.67.51c1.42.34,2.61.74,3.59,1.21v6.11h-.6c-.26-.2-.67-.47-1.23-.81-.56-.34-1.1-.62-1.63-.87-.63-.29-1.34-.53-2.12-.71-.78-.18-1.58-.28-2.39-.28-1.09,0-2.01.19-2.76.56-.76.37-1.13.87-1.13,1.49,0,.55.18.97.56,1.29.37.32,1.18.62,2.43.93.65.16,1.39.32,2.23.46.84.15,1.64.36,2.42.62,1.73.56,3.05,1.38,3.94,2.46.9,1.08,1.35,2.53,1.35,4.32,0,1.13-.27,2.21-.79,3.24-.54,1.02-1.28,1.89-2.26,2.59-1.04.76-2.25,1.35-3.64,1.76-1.4.42-3.08.62-5.03.62h0Z"/>
    </clipPath>
    <clipPath id="clippath-2">
      <path class="cls-3" d="M26.73,52.86c-.87,0-.67-2.16-.67-3.13,0-1.21-.1-2.49-.1-3.71.31.07.65.19,1.01.19h.48c0,1.26-.05,2.36-.05,3.61,0,.87.1,3.04-.63,3.04h-.05ZM27.79,41.63h0c.66.18,1.35,1.47,1.35,2.41,0,1.17-.81,1.93-1.98,1.93-1.51,0-2.5-1.25-3.52-1.25h-.48l-.53.05c.11-.18.49-.44.72-.44h.24c.63,0,1.08.16,1.58.3.25.07,1.23.38,1.45.38.69,0,1.3-.45,1.3-1.11v-.05c0-.31-.14-.36-.14-.58v-1.64h0ZM27.68,35.3h0l-.2,9.13c-.18.14-.42.34-.75.34h-.1c-.16,0-.39-.14-.67-.15l-.2-8.25,1.92-1.08h0ZM28.08,26.79h0c.37.1,1.91,1.11,2.18,1.38.51.51,1.29,1.3,1.29,2.28v.14c0,4.18-7.27,4.92-7.27,7.28v.53c0,.85,1.35,1.67,1.35,1.83v1.88c-.59-.05-1.98-1.04-2.35-1.41-.58-.58-1.12-1.49-1.12-2.64v-.48c0-4.17,6.93-4.1,6.93-6.84v-.1c0-.64-1.01-1.16-1.01-1.35v-2.51h0ZM24.37,27.9h0c.49.12.58.51.58,1.11v.29c-.32-.09-.57-1-.58-1.4h0ZM31.16,25.78h0v.14c0,.11.01.13.05.19l-1.09,1.57-.35-.18.68-1.7.07.31.65-.34h0ZM25.48,21.3h0c0-.19,2.25-1.57,2.55-1.73l-.29,12.72-2,1-.26-10.4v-1.59h0ZM20.66,29.83h0c-.44,0-2.28-.58-2.84-.72-.97-.24-1.9-.45-2.87-.69-1.72-.43-3.86-1.12-5.29-1.84-.81-.41-1.58-.78-2.31-1.26-.79-.53-1.32-.99-2.04-1.52-.59-.44-3.04-3.22-3.2-3.88.14.1,1.27,1.7,1.58,2.04.49.54,1.28,1.31,1.86,1.75,1.24.94,3.05,1.98,4.75,2.43.87.23,1.93.51,2.83.78.86.26,1.98.45,2.89.68,1,.25,1.83.55,2.71.9.13.05,2.75,1.36,1.92,1.36h0ZM22.59,28.29h0c-.11,0-2.29-.98-2.64-1.11-.76-.3-1.86-.84-2.71-1-.41-.08-1.05-.28-1.46-.42-.47-.16-.99-.24-1.44-.4-.94-.32-1.87-.59-2.81-.9-1.8-.6-3.62-1.41-5.05-2.37-.75-.5-1.42-1.03-2.05-1.66-.3-.3-1.66-1.65-1.75-1.96.27.18.63.7.9.98.29.29.64.69.94.94.69.58,1.36,1.08,2.15,1.55,1.4.83,3.56,1.66,5.41,2.01,1.02.19,2.08.48,3.07.64,1.03.16,2.01.53,2.98.73,1.13.25,4.19,2.02,4.44,2.98h0ZM31.16,28.29h0c.13-.55,1.45-1.51,1.94-1.82.85-.56,1.57-.79,2.58-1.17,1.7-.65,4.18-.9,6.08-1.39,2.25-.59,3.66-1.02,5.44-2.07.79-.47,1.46-1.02,2.15-1.61.52-.44,1.42-1.66,1.79-1.91-.08.31-1.44,1.71-1.75,2.01-.61.61-1.34,1.2-2.07,1.69-1.49.99-3.22,1.8-5.06,2.41-.91.3-1.89.67-2.85.9-.48.11-.96.29-1.45.43-.52.15-1,.23-1.47.4-.45.17-.98.26-1.41.46-.43.2-.9.37-1.33.55-.45.18-.87.37-1.33.55-.38.15-.97.49-1.27.56h0ZM29.19,27.03h0c0-.76,1.39-3.17,1.79-3.7.8-1.05,1.61-1.98,2.73-2.72,1.16-.77,2.23-1.28,3.71-1.73.94-.28,3.35-1,4.44-1-.32.43-1.6.34-2.24.5-.65.16-1.38.49-1.93.77-.48.24-1.28.76-1.64,1.1-.19.19-1.35.72-1.73.97-.98.66-2.13,1.68-2.83,2.61-.46.61-1.84,2.67-1.91,3.49-.13-.03-.39-.14-.39-.29h0ZM20.85,22.26h0c-.1-.03-1.57-1.16-1.99-1.38-.28-.15-.9-.42-1.11-.58-.33-.25-.59-.47-.94-.7-.6-.4-1.47-.86-2.25-1.08-.59-.17-2.45-.33-2.68-.65.8,0,2.03.34,2.74.54.89.25,1.64.45,2.49.73,1.12.37,3.53,1.64,4.07,2.44l-.34.67h0ZM20.57,23.23h0c-.41-.21-.92-.73-1.43-1.03-.55-.32-1.04-.57-1.65-.81-.62-.24-1.18-.37-1.85-.6-.42-.14-.53-.12-.93-.32-.27-.14-.53-.29-.81-.4-1.21-.49-2.26-.9-3.57-1.34-.8-.27-3.02-1.02-3.49-1.43.1,0,1.43.55,1.75.66.61.21,1.26.33,1.89.52,1.23.37,2.5.7,3.76,1.01,1.24.31,2.57.65,3.62,1.15.71.34,2.49,1.37,2.86,1.91l-.14.67h0ZM28.9,26.94h0c-.18-.13.25-1.72.34-2.02.19-.58.55-1.17.81-1.69.57-1.1,1.36-2.01,2.2-2.85.89-.9,1.88-1.42,3.05-2.01.62-.31,3-1.16,3.85-1.16-.09.06-1.67.47-1.94.56-.56.17-1.34.43-1.83.68-1.18.58-2.01,1.26-2.58,2.43-.25.49-.87.84-1.21,1.29-.39.5-.71.88-1.08,1.42-.35.53-.61,1.02-.9,1.6-.12.23-.64,1.7-.71,1.75h0ZM33.14,25.39h0c.09-.34,1.35-1.35,1.7-1.58.7-.47,1.29-.76,2.14-1.09,1.52-.6,3.41-.95,5.08-1.38,1.67-.43,3.42-.91,4.83-1.62.72-.36,1.41-.74,2.04-1.19.32-.24.62-.46.92-.72.25-.21.59-.6.83-.76-.17.63-2.93,2.45-3.62,2.88-1.23.77-2.93,1.52-4.37,2.09-1.55.61-3.11,1.16-4.75,1.71-.84.28-1.61.5-2.41.82-.51.2-1.86.84-2.39.84h0ZM30.82,25.68h0c.09-1.02,2.03-3.06,2.74-3.62,1.16-.92,2.61-1.67,4.23-2.13,1.65-.47,3.43-.81,5.02-1.34.76-.25,1.68-.46,2.49-.69.77-.21,1.71-.82,2.24-.94-.33.46-3.66,1.6-4.49,1.87-.79.26-1.57.54-2.33.85-.55.22-1.78.92-2.18,1-1.58.31-3.36,1.09-4.48,1.87-.67.47-1.1.94-1.67,1.5-.6.6-.73,1.19-1.55,1.63h0ZM32.94,29.83h0c.04-.52,2.08-1.38,2.63-1.61.88-.36,2.32-.74,3.3-.94,1.94-.38,4.98-1.15,6.51-1.92,2.37-1.21,3.1-1.83,4.84-3.64.51-.54,1.4-1.81,1.74-2.5.31-.61,1.05-2.4,1.4-2.79-.05.54-1.09,2.37-1.36,2.87-.52.94-1.09,1.66-1.7,2.49-.95,1.3-3.04,3.09-4.52,3.87-2,1.05-3.56,1.78-5.98,2.46-1.11.31-2.19.57-3.33.86-.6.15-1.12.28-1.69.43-.33.08-1.38.42-1.65.42h-.19ZM9.92,20.58h0c-.73,0-3.45-1.28-4.01-1.63-.64-.4-2.86-1.93-3.02-2.56.5.34.97.86,1.55,1.24.58.38,1.07.7,1.67,1.08.67.42,3.03,1.48,3.86,1.68l-.05.19h0ZM44.17,20.24h0c.85-.2,3.04-1.26,3.75-1.7.61-.38,1.07-.73,1.64-1.11.55-.36,1.03-.96,1.45-1.24-.07.25-1.09,1.26-1.34,1.45-.56.44-1.01.75-1.6,1.15-.78.53-2.76,1.45-3.8,1.69l-.1-.24h0ZM31.45,25.83h0c.13-.56,1.18-1.69,1.58-2.09.6-.6,1.28-1.13,2.07-1.55,1.66-.87,3.42-1.33,5.53-1.75,1.92-.39,4.05-.91,5.69-1.58.89-.36,1.65-.75,2.41-1.25.35-.23,1.87-1.52,2.04-1.57-.54.81-3.24,2.52-4.3,2.97-1.71.73-3.41,1.4-5.26,2.02-.97.32-1.69.67-2.72.94-.88.24-1.9.58-2.66.96-.81.4-1.5.92-2.25,1.42-.36.24-1.92,1.42-2.14,1.48h0ZM20.71,24.72h0c-.34-.23-.69-.41-1.04-.64-.34-.23-.59-.46-.95-.69-.67-.41-1.47-.77-2.27-1.05-.44-.15-.85-.25-1.31-.37-.43-.11-.85-.3-1.22-.41-.78-.24-1.62-.62-2.43-.9-1.73-.59-3.22-1.12-4.76-1.89-.7-.35-3.69-2.27-3.84-2.81.46.31,1.32,1.02,1.77,1.41.55.47,1.32.83,2,1.18,1.16.58,3.31,1.27,4.78,1.53.84.15,1.73.42,2.59.59.67.13,1.94.42,2.49.65.79.33,1.51.51,2.22.95.73.46,1.19.89,1.82,1.31l.14,1.15h0ZM20.61,25.39h0c-.57,0-2.18-.75-2.74-.97-.88-.35-1.88-.57-2.78-.93-.91-.36-1.83-.61-2.75-.96-.91-.36-1.73-.68-2.6-1.05-1.85-.8-3.19-1.6-4.76-2.66-.71-.48-3.39-3.06-3.58-3.79.29.19,1.33,1.63,1.7,2.01.6.62,1.29,1.2,2.02,1.69,1.2.8,3.51,1.9,5.14,2.23.91.19,1.98.5,2.96.75,1,.25,1.97.5,2.92.79,1.64.51,3.63,1.63,4.48,2.89h0ZM26.7,13.19h0l-1.35-1.3.04-.04h.68c2.34,0,5.44.71,5.44,2.94v.53c0,1.59-2.64,3.37-3.72,4.09-.94.63-4.13,2.41-4.13,3.62v.34c0,.82,1.06,1.62,1.64,1.93l.06,1.2v1.54c-.57-.13-2.4-1.17-2.84-1.51-.68-.53-1.7-1.48-1.7-2.64v-.14c0-2.45,2.05-3.57,3.61-4.48.8-.47,1.85-.93,2.7-1.35.37-.19.97-.5,1.26-.76.24-.2.86-.74.86-1.12v-.24c0-.49-.6-.44-.97-.58-.35-.13-.75-.31-1.06-.48-.36-.21-1.54-1.08-1.64-1.45l1.12-.11h0ZM26.59,53.15h.29c.48-.42.77-.77.77-1.69v-2.51h.14c5.18,0,10.65-3.02,13.07-5.77.79-.9,1.45-1.55,2.14-2.58.69-1.04,1.12-1.83,1.7-2.98.85-1.7,1.78-5.07,1.78-7.61v-1.25l-.33-3.04c1.6-.85,3.5-2.63,4.56-4.05.66-.88,1.11-1.64,1.7-2.58.25-.4.55-.97.73-1.44.08-.21.56-1.44.61-1.51v-.29l-.19-.06c-.45.31-1.2,2.07-1.51,2.69-.51,1.02-.89,1.73-1.59,2.56-.57.69-1.36,1.62-2.06,2.14-.53.39-1.85,1.48-2.5,1.64l-.41-1.49c.9-.21,3.29-2.04,3.91-2.67.7-.7,2.63-2.72,2.86-3.7l-.24-.05c-.3.2-1.1,1.32-1.46,1.68-.27.26-.48.57-.75.84-.27.26-.54.49-.79.75-.51.52-3.06,2.31-3.84,2.37l-.45-1.15c1.03-.24,4.24-2.35,4.99-3.03.94-.85,3.2-3.19,3.5-4.49h-.19c-.23,0-1.62,2.03-1.98,2.26l.61-.84-.28-.06c-1.18.78-2.12,1.74-3.41,2.55-1.02.64-2.95,1.36-4.3,1.68l-.11-.23c.67-.16,1.34-.44,2.03-.59.77-.17,1.11-.56,1.64-.91l-.15-.24c.67-.35,1.57-.8,1.98-1.4l-.06-.14h-.23c-.27,0-.98.58-1.28.74-.46.23-.9.47-1.37.65-.44.17-2.68.92-3.12.92-.11,0-1.14-1.41-1.34-1.6-.48-.47-.93-.98-1.42-1.47-.93-.93-2.15-1.76-3.3-2.48-1.18-.73-2.54-1.32-3.98-1.8-.72-.24-1.56-.42-2.3-.59-.31-.07-2.55-.27-2.59-.3h-2.02s-2.2.25-2.48.32c-.85.2-1.48.28-2.24.56-1.41.51-2.65.94-3.85,1.69-.61.38-1.12.7-1.7,1.1-.55.39-1,.84-1.52,1.22-.4.3-1.02,1.01-1.41,1.39-.35.35-.89,1.28-1.36,1.39l.04.19-.34.52c-.49-.03-2.96-.78-3.43-.98-.54-.23-1.03-.45-1.52-.7-.37-.19-.98-.77-1.4-.77h-.05c-.11,0-.14.03-.14.14,0,.31,1.58,1.27,1.93,1.35-.02.28-.1.1-.1.29,0,.09.69.54.84.61.36.18.61.25,1.03.36.53.14,1.7.58,2.18.62l-.11.26c-1.67-.4-3.23-.99-4.54-1.72-1.39-.77-2.3-1.81-3.53-2.63l-.29.06.55.74-.04.03-1.8-2.19-.25.07c.27,1.17,2.75,3.9,3.68,4.6.89.67,1.48,1.08,2.47,1.68.43.26.88.5,1.33.74.17.09,1.38.61,1.38.69,0,0-.4,1.03-.43,1.11-1.05-.24-3.41-1.77-4.11-2.44-.53-.51-1.2-1.06-1.63-1.65-.16-.23-1.37-1.62-1.54-1.73l-.19.06c.26,1.11,2.26,3.1,3.04,3.88.57.57,1.27,1.06,1.95,1.51.33.22.73.46,1.08.65.15.08,1.09.5,1.09.59,0,.19-.37,1.04-.39,1.45-.5-.12-2.33-1.33-2.71-1.67-.84-.76-1.45-1.31-2.19-2.2-.74-.89-1.16-1.61-1.7-2.69-.25-.5-.48-1-.72-1.49-.17-.35-.5-1.19-.96-1.2v.24c0,.58,1.1,2.66,1.38,3.15.59,1.01,1.13,1.78,1.8,2.68.68.92,1.4,1.5,2.2,2.27.36.35,2.21,1.72,2.66,1.82l-.33,3.08.04.63c0,3.23.97,6.37,2.06,8.55,1.03,2.07,2.89,4.6,4.6,5.95,1.06.83,1.86,1.52,3.08,2.23,1.19.69,2.27,1.12,3.67,1.62,1.07.38,3.05.85,4.42.88.39,0,.24.68.24,1.11v1.3c0,1.16.16,1.3.77,1.83h0Z"/>
    </clipPath>
  </defs>
  <g id="Layer_2-2" data-name="Layer 2">
    <g>
      <polygon class="cls-1" points="330.27 0 331.54 0 331.54 59.86 330.27 59.86 330.27 0 330.27 0"/>
      <g>
        <path class="cls-3" d="M156.51,43.53V11.49h21.67v6.11h-13.66v5.62h12.59v6.11h-12.59v8.09h13.66v6.11h-21.67ZM207.04,43.53h-8.83l-4.6-6.95-4.74,6.95h-8.64l8.89-12.08-8.74-12.08h8.83l4.53,6.82,4.53-6.82h8.67l-8.75,11.88,8.86,12.29h0ZM233.52,31.11h0c0,3.86-.98,6.97-2.94,9.34-1.95,2.36-4.37,3.55-7.24,3.55-1.2,0-2.25-.14-3.14-.41-.89-.27-1.84-.69-2.84-1.27v10.08h-7.53V19.36h7.53v2.52c1.1-.95,2.23-1.72,3.38-2.31,1.14-.59,2.47-.88,3.98-.88,2.8,0,4.97,1.11,6.5,3.33,1.53,2.23,2.3,5.25,2.3,9.08h0ZM225.82,31.26h0c0-2.35-.36-4.06-1.09-5.12-.72-1.06-1.85-1.59-3.39-1.59-.68,0-1.34.11-2.01.32-.67.21-1.32.54-1.97.97v12.16c.4.17.84.29,1.32.36.49.07,1.05.11,1.71.11,1.84,0,3.2-.6,4.08-1.8.89-1.2,1.34-3,1.34-5.41h0ZM249.94,44.18h0c-4.56,0-8.06-1.09-10.49-3.27-2.43-2.18-3.65-5.29-3.65-9.32s1.13-7.09,3.4-9.44c2.27-2.36,5.44-3.53,9.51-3.53,3.7,0,6.49,1,8.35,2.99,1.87,2,2.8,4.85,2.8,8.57v2.71h-16.51c.07,1.12.31,2.06.71,2.81.4.76.93,1.35,1.59,1.8.64.45,1.4.76,2.25.96.86.2,1.8.29,2.82.29.87,0,1.74-.1,2.58-.29.85-.19,1.62-.45,2.32-.76.62-.27,1.19-.57,1.71-.88.53-.32.96-.6,1.28-.84h.79v6.22c-.62.24-1.18.47-1.69.68-.51.2-1.21.42-2.1.63-.82.22-1.66.39-2.53.51-.87.13-1.93.19-3.17.19h0ZM252.44,28.34h0c-.05-1.59-.41-2.81-1.11-3.64-.7-.83-1.76-1.25-3.2-1.25s-2.61.44-3.44,1.31c-.82.87-1.28,2.07-1.37,3.58h9.11ZM279.97,26.48h-.62c-.29-.1-.71-.18-1.25-.23-.54-.05-1.15-.07-1.81-.07-.79,0-1.62.12-2.49.35-.87.23-1.71.5-2.53.81v16.19h-7.53v-24.17h7.53v3.46c.34-.32.82-.71,1.43-1.19.61-.48,1.17-.87,1.67-1.15.54-.33,1.18-.61,1.9-.85.73-.23,1.41-.35,2.06-.35.24,0,.52,0,.82.02.3.01.57.04.81.07v7.12h0ZM292.1,44h0c-3.07,0-5.3-.63-6.7-1.89-1.4-1.27-2.1-3.33-2.1-6.19v-11.3h-2.89v-5.25h2.89v-6.91h7.53v6.91h7.26v5.25h-7.26v8.56c0,.85,0,1.59.02,2.22.02.63.13,1.2.34,1.7.2.51.56.9,1.07,1.2.51.29,1.25.44,2.22.44.4,0,.93-.09,1.59-.26.65-.18,1.11-.33,1.37-.48h.65v5.32c-.82.21-1.69.38-2.61.51-.92.13-2.04.19-3.38.19h0ZM308.53,44.2h0c-1.78,0-3.47-.19-5.05-.58-1.59-.39-2.89-.84-3.93-1.36v-6.37h.62c.36.27.76.57,1.23.9.46.33,1.1.68,1.92,1.04.7.33,1.49.61,2.37.85.88.24,1.84.35,2.87.35s2-.16,2.81-.49c.81-.33,1.21-.86,1.21-1.57,0-.57-.19-.99-.56-1.27-.37-.29-1.09-.57-2.17-.82-.57-.14-1.3-.29-2.17-.46-.87-.16-1.65-.35-2.32-.57-1.9-.59-3.31-1.46-4.27-2.61-.96-1.16-1.43-2.67-1.43-4.56,0-1.07.25-2.09.74-3.05.49-.95,1.22-1.8,2.18-2.55.96-.73,2.15-1.31,3.56-1.74,1.41-.43,3-.65,4.78-.65s3.25.17,4.67.51c1.42.34,2.61.74,3.59,1.21v6.11h-.6c-.26-.2-.67-.47-1.23-.81-.56-.34-1.1-.62-1.63-.87-.63-.29-1.34-.53-2.12-.71-.78-.18-1.58-.28-2.39-.28-1.09,0-2.01.19-2.76.56-.76.37-1.13.87-1.13,1.49,0,.55.18.97.56,1.29.37.32,1.18.62,2.43.93.65.16,1.39.32,2.23.46.84.15,1.64.36,2.42.62,1.73.56,3.05,1.38,3.94,2.46.9,1.08,1.35,2.53,1.35,4.32,0,1.13-.27,2.21-.79,3.24-.54,1.02-1.28,1.89-2.26,2.59-1.04.76-2.25,1.35-3.64,1.76-1.4.42-3.08.62-5.03.62h0Z"/>
        <g class="cls-6">
          <rect class="cls-3" x="156.51" y="11.49" width="163.75" height="40.91"/>
        </g>
      </g>
      <path class="cls-2" d="M71.08,44.15c-4.8,0-8.62-1.45-11.45-4.35-2.83-2.91-4.24-6.99-4.24-12.26s1.42-9.12,4.25-12.14c2.83-3.02,6.65-4.53,11.46-4.53,1.28,0,2.43.07,3.44.21,1.02.15,2,.35,2.93.6.73.22,1.53.51,2.39.88.86.37,1.56.7,2.09.97v7.64h-.82c-.39-.35-.88-.76-1.47-1.24-.59-.49-1.25-.96-2-1.41-.75-.46-1.57-.85-2.47-1.17-.9-.32-1.83-.48-2.81-.48-1.16,0-2.23.18-3.2.55-.97.37-1.89,1-2.77,1.9-.8.82-1.46,1.93-1.97,3.31-.51,1.4-.76,3.03-.76,4.93,0,2,.27,3.67.79,5.03.54,1.35,1.22,2.45,2.09,3.28.83.81,1.76,1.39,2.78,1.75,1.03.36,2.05.54,3.07.54s2.07-.18,3.03-.53c.96-.35,1.77-.74,2.43-1.17.72-.45,1.35-.9,1.9-1.36.54-.46,1.02-.87,1.42-1.23h.73v7.53c-.59.27-1.27.59-2.04.94-.78.35-1.57.65-2.4.89-1,.3-1.94.53-2.82.69-.87.16-2.08.24-3.61.24h0ZM93.79,43.53h-7.53V10.04h7.53v33.49h0ZM107.09,43.53h-7.53v-24.17h7.53v24.17h0ZM107.31,15.92h-7.96v-5.88h7.96v5.88h0ZM135.5,43.53h-7.57v-11.99c0-.97-.04-1.95-.12-2.92-.08-.96-.23-1.68-.44-2.14-.26-.54-.63-.93-1.13-1.17-.48-.23-1.14-.35-1.95-.35-.62,0-1.24.12-1.87.35-.63.23-1.31.6-2.03,1.1v17.13h-7.53v-24.17h7.53v2.66c1.23-1.04,2.44-1.86,3.61-2.45,1.17-.59,2.46-.88,3.88-.88,2.47,0,4.36.78,5.66,2.33,1.31,1.56,1.96,3.81,1.96,6.77v15.73h0ZM148.61,43.53h-7.53v-24.17h7.53v24.17h0ZM148.83,15.92h-7.96v-5.88h7.96v5.88h0Z"/>
      <g>
        <path class="cls-3" d="M26.73,52.86c-.87,0-.67-2.16-.67-3.13,0-1.21-.1-2.49-.1-3.71.31.07.65.19,1.01.19h.48c0,1.26-.05,2.36-.05,3.61,0,.87.1,3.04-.63,3.04h-.05ZM27.79,41.63h0c.66.18,1.35,1.47,1.35,2.41,0,1.17-.81,1.93-1.98,1.93-1.51,0-2.5-1.25-3.52-1.25h-.48l-.53.05c.11-.18.49-.44.72-.44h.24c.63,0,1.08.16,1.58.3.25.07,1.23.38,1.45.38.69,0,1.3-.45,1.3-1.11v-.05c0-.31-.14-.36-.14-.58v-1.64h0ZM27.68,35.3h0l-.2,9.13c-.18.14-.42.34-.75.34h-.1c-.16,0-.39-.14-.67-.15l-.2-8.25,1.92-1.08h0ZM28.08,26.79h0c.37.1,1.91,1.11,2.18,1.38.51.51,1.29,1.3,1.29,2.28v.14c0,4.18-7.27,4.92-7.27,7.28v.53c0,.85,1.35,1.67,1.35,1.83v1.88c-.59-.05-1.98-1.04-2.35-1.41-.58-.58-1.12-1.49-1.12-2.64v-.48c0-4.17,6.93-4.1,6.93-6.84v-.1c0-.64-1.01-1.16-1.01-1.35v-2.51h0ZM24.37,27.9h0c.49.12.58.51.58,1.11v.29c-.32-.09-.57-1-.58-1.4h0ZM31.16,25.78h0v.14c0,.11.01.13.05.19l-1.09,1.57-.35-.18.68-1.7.07.31.65-.34h0ZM25.48,21.3h0c0-.19,2.25-1.57,2.55-1.73l-.29,12.72-2,1-.26-10.4v-1.59h0ZM20.66,29.83h0c-.44,0-2.28-.58-2.84-.72-.97-.24-1.9-.45-2.87-.69-1.72-.43-3.86-1.12-5.29-1.84-.81-.41-1.58-.78-2.31-1.26-.79-.53-1.32-.99-2.04-1.52-.59-.44-3.04-3.22-3.2-3.88.14.1,1.27,1.7,1.58,2.04.49.54,1.28,1.31,1.86,1.75,1.24.94,3.05,1.98,4.75,2.43.87.23,1.93.51,2.83.78.86.26,1.98.45,2.89.68,1,.25,1.83.55,2.71.9.13.05,2.75,1.36,1.92,1.36h0ZM22.59,28.29h0c-.11,0-2.29-.98-2.64-1.11-.76-.3-1.86-.84-2.71-1-.41-.08-1.05-.28-1.46-.42-.47-.16-.99-.24-1.44-.4-.94-.32-1.87-.59-2.81-.9-1.8-.6-3.62-1.41-5.05-2.37-.75-.5-1.42-1.03-2.05-1.66-.3-.3-1.66-1.65-1.75-1.96.27.18.63.7.9.98.29.29.64.69.94.94.69.58,1.36,1.08,2.15,1.55,1.4.83,3.56,1.66,5.41,2.01,1.02.19,2.08.48,3.07.64,1.03.16,2.01.53,2.98.73,1.13.25,4.19,2.02,4.44,2.98h0ZM31.16,28.29h0c.13-.55,1.45-1.51,1.94-1.82.85-.56,1.57-.79,2.58-1.17,1.7-.65,4.18-.9,6.08-1.39,2.25-.59,3.66-1.02,5.44-2.07.79-.47,1.46-1.02,2.15-1.61.52-.44,1.42-1.66,1.79-1.91-.08.31-1.44,1.71-1.75,2.01-.61.61-1.34,1.2-2.07,1.69-1.49.99-3.22,1.8-5.06,2.41-.91.3-1.89.67-2.85.9-.48.11-.96.29-1.45.43-.52.15-1,.23-1.47.4-.45.17-.98.26-1.41.46-.43.2-.9.37-1.33.55-.45.18-.87.37-1.33.55-.38.15-.97.49-1.27.56h0ZM29.19,27.03h0c0-.76,1.39-3.17,1.79-3.7.8-1.05,1.61-1.98,2.73-2.72,1.16-.77,2.23-1.28,3.71-1.73.94-.28,3.35-1,4.44-1-.32.43-1.6.34-2.24.5-.65.16-1.38.49-1.93.77-.48.24-1.28.76-1.64,1.1-.19.19-1.35.72-1.73.97-.98.66-2.13,1.68-2.83,2.61-.46.61-1.84,2.67-1.91,3.49-.13-.03-.39-.14-.39-.29h0ZM20.85,22.26h0c-.1-.03-1.57-1.16-1.99-1.38-.28-.15-.9-.42-1.11-.58-.33-.25-.59-.47-.94-.7-.6-.4-1.47-.86-2.25-1.08-.59-.17-2.45-.33-2.68-.65.8,0,2.03.34,2.74.54.89.25,1.64.45,2.49.73,1.12.37,3.53,1.64,4.07,2.44l-.34.67h0ZM20.57,23.23h0c-.41-.21-.92-.73-1.43-1.03-.55-.32-1.04-.57-1.65-.81-.62-.24-1.18-.37-1.85-.6-.42-.14-.53-.12-.93-.32-.27-.14-.53-.29-.81-.4-1.21-.49-2.26-.9-3.57-1.34-.8-.27-3.02-1.02-3.49-1.43.1,0,1.43.55,1.75.66.61.21,1.26.33,1.89.52,1.23.37,2.5.7,3.76,1.01,1.24.31,2.57.65,3.62,1.15.71.34,2.49,1.37,2.86,1.91l-.14.67h0ZM28.9,26.94h0c-.18-.13.25-1.72.34-2.02.19-.58.55-1.17.81-1.69.57-1.1,1.36-2.01,2.2-2.85.89-.9,1.88-1.42,3.05-2.01.62-.31,3-1.16,3.85-1.16-.09.06-1.67.47-1.94.56-.56.17-1.34.43-1.83.68-1.18.58-2.01,1.26-2.58,2.43-.25.49-.87.84-1.21,1.29-.39.5-.71.88-1.08,1.42-.35.53-.61,1.02-.9,1.6-.12.23-.64,1.7-.71,1.75h0ZM33.14,25.39h0c.09-.34,1.35-1.35,1.7-1.58.7-.47,1.29-.76,2.14-1.09,1.52-.6,3.41-.95,5.08-1.38,1.67-.43,3.42-.91,4.83-1.62.72-.36,1.41-.74,2.04-1.19.32-.24.62-.46.92-.72.25-.21.59-.6.83-.76-.17.63-2.93,2.45-3.62,2.88-1.23.77-2.93,1.52-4.37,2.09-1.55.61-3.11,1.16-4.75,1.71-.84.28-1.61.5-2.41.82-.51.2-1.86.84-2.39.84h0ZM30.82,25.68h0c.09-1.02,2.03-3.06,2.74-3.62,1.16-.92,2.61-1.67,4.23-2.13,1.65-.47,3.43-.81,5.02-1.34.76-.25,1.68-.46,2.49-.69.77-.21,1.71-.82,2.24-.94-.33.46-3.66,1.6-4.49,1.87-.79.26-1.57.54-2.33.85-.55.22-1.78.92-2.18,1-1.58.31-3.36,1.09-4.48,1.87-.67.47-1.1.94-1.67,1.5-.6.6-.73,1.19-1.55,1.63h0ZM32.94,29.83h0c.04-.52,2.08-1.38,2.63-1.61.88-.36,2.32-.74,3.3-.94,1.94-.38,4.98-1.15,6.51-1.92,2.37-1.21,3.1-1.83,4.84-3.64.51-.54,1.4-1.81,1.74-2.5.31-.61,1.05-2.4,1.4-2.79-.05.54-1.09,2.37-1.36,2.87-.52.94-1.09,1.66-1.7,2.49-.95,1.3-3.04,3.09-4.52,3.87-2,1.05-3.56,1.78-5.98,2.46-1.11.31-2.19.57-3.33.86-.6.15-1.12.28-1.69.43-.33.08-1.38.42-1.65.42h-.19ZM9.92,20.58h0c-.73,0-3.45-1.28-4.01-1.63-.64-.4-2.86-1.93-3.02-2.56.5.34.97.86,1.55,1.24.58.38,1.07.7,1.67,1.08.67.42,3.03,1.48,3.86,1.68l-.05.19h0ZM44.17,20.24h0c.85-.2,3.04-1.26,3.75-1.7.61-.38,1.07-.73,1.64-1.11.55-.36,1.03-.96,1.45-1.24-.07.25-1.09,1.26-1.34,1.45-.56.44-1.01.75-1.6,1.15-.78.53-2.76,1.45-3.8,1.69l-.1-.24h0ZM31.45,25.83h0c.13-.56,1.18-1.69,1.58-2.09.6-.6,1.28-1.13,2.07-1.55,1.66-.87,3.42-1.33,5.53-1.75,1.92-.39,4.05-.91,5.69-1.58.89-.36,1.65-.75,2.41-1.25.35-.23,1.87-1.52,2.04-1.57-.54.81-3.24,2.52-4.3,2.97-1.71.73-3.41,1.4-5.26,2.02-.97.32-1.69.67-2.72.94-.88.24-1.9.58-2.66.96-.81.4-1.5.92-2.25,1.42-.36.24-1.92,1.42-2.14,1.48h0ZM20.71,24.72h0c-.34-.23-.69-.41-1.04-.64-.34-.23-.59-.46-.95-.69-.67-.41-1.47-.77-2.27-1.05-.44-.15-.85-.25-1.31-.37-.43-.11-.85-.3-1.22-.41-.78-.24-1.62-.62-2.43-.9-1.73-.59-3.22-1.12-4.76-1.89-.7-.35-3.69-2.27-3.84-2.81.46.31,1.32,1.02,1.77,1.41.55.47,1.32.83,2,1.18,1.16.58,3.31,1.27,4.78,1.53.84.15,1.73.42,2.59.59.67.13,1.94.42,2.49.65.79.33,1.51.51,2.22.95.73.46,1.19.89,1.82,1.31l.14,1.15h0ZM20.61,25.39h0c-.57,0-2.18-.75-2.74-.97-.88-.35-1.88-.57-2.78-.93-.91-.36-1.83-.61-2.75-.96-.91-.36-1.73-.68-2.6-1.05-1.85-.8-3.19-1.6-4.76-2.66-.71-.48-3.39-3.06-3.58-3.79.29.19,1.33,1.63,1.7,2.01.6.62,1.29,1.2,2.02,1.69,1.2.8,3.51,1.9,5.14,2.23.91.19,1.98.5,2.96.75,1,.25,1.97.5,2.92.79,1.64.51,3.63,1.63,4.48,2.89h0ZM26.7,13.19h0l-1.35-1.3.04-.04h.68c2.34,0,5.44.71,5.44,2.94v.53c0,1.59-2.64,3.37-3.72,4.09-.94.63-4.13,2.41-4.13,3.62v.34c0,.82,1.06,1.62,1.64,1.93l.06,1.2v1.54c-.57-.13-2.4-1.17-2.84-1.51-.68-.53-1.7-1.48-1.7-2.64v-.14c0-2.45,2.05-3.57,3.61-4.48.8-.47,1.85-.93,2.7-1.35.37-.19.97-.5,1.26-.76.24-.2.86-.74.86-1.12v-.24c0-.49-.6-.44-.97-.58-.35-.13-.75-.31-1.06-.48-.36-.21-1.54-1.08-1.64-1.45l1.12-.11h0ZM26.59,53.15h.29c.48-.42.77-.77.77-1.69v-2.51h.14c5.18,0,10.65-3.02,13.07-5.77.79-.9,1.45-1.55,2.14-2.58.69-1.04,1.12-1.83,1.7-2.98.85-1.7,1.78-5.07,1.78-7.61v-1.25l-.33-3.04c1.6-.85,3.5-2.63,4.56-4.05.66-.88,1.11-1.64,1.7-2.58.25-.4.55-.97.73-1.44.08-.21.56-1.44.61-1.51v-.29l-.19-.06c-.45.31-1.2,2.07-1.51,2.69-.51,1.02-.89,1.73-1.59,2.56-.57.69-1.36,1.62-2.06,2.14-.53.39-1.85,1.48-2.5,1.64l-.41-1.49c.9-.21,3.29-2.04,3.91-2.67.7-.7,2.63-2.72,2.86-3.7l-.24-.05c-.3.2-1.1,1.32-1.46,1.68-.27.26-.48.57-.75.84-.27.26-.54.49-.79.75-.51.52-3.06,2.31-3.84,2.37l-.45-1.15c1.03-.24,4.24-2.35,4.99-3.03.94-.85,3.2-3.19,3.5-4.49h-.19c-.23,0-1.62,2.03-1.98,2.26l.61-.84-.28-.06c-1.18.78-2.12,1.74-3.41,2.55-1.02.64-2.95,1.36-4.3,1.68l-.11-.23c.67-.16,1.34-.44,2.03-.59.77-.17,1.11-.56,1.64-.91l-.15-.24c.67-.35,1.57-.8,1.98-1.4l-.06-.14h-.23c-.27,0-.98.58-1.28.74-.46.23-.9.47-1.37.65-.44.17-2.68.92-3.12.92-.11,0-1.14-1.41-1.34-1.6-.48-.47-.93-.98-1.42-1.47-.93-.93-2.15-1.76-3.3-2.48-1.18-.73-2.54-1.32-3.98-1.8-.72-.24-1.56-.42-2.3-.59-.31-.07-2.55-.27-2.59-.3h-2.02s-2.2.25-2.48.32c-.85.2-1.48.28-2.24.56-1.41.51-2.65.94-3.85,1.69-.61.38-1.12.7-1.7,1.1-.55.39-1,.84-1.52,1.22-.4.3-1.02,1.01-1.41,1.39-.35.35-.89,1.28-1.36,1.39l.04.19-.34.52c-.49-.03-2.96-.78-3.43-.98-.54-.23-1.03-.45-1.52-.7-.37-.19-.98-.77-1.4-.77h-.05c-.11,0-.14.03-.14.14,0,.31,1.58,1.27,1.93,1.35-.02.28-.1.1-.1.29,0,.09.69.54.84.61.36.18.61.25,1.03.36.53.14,1.7.58,2.18.62l-.11.26c-1.67-.4-3.23-.99-4.54-1.72-1.39-.77-2.3-1.81-3.53-2.63l-.29.06.55.74-.04.03-1.8-2.19-.25.07c.27,1.17,2.75,3.9,3.68,4.6.89.67,1.48,1.08,2.47,1.68.43.26.88.5,1.33.74.17.09,1.38.61,1.38.69,0,0-.4,1.03-.43,1.11-1.05-.24-3.41-1.77-4.11-2.44-.53-.51-1.2-1.06-1.63-1.65-.16-.23-1.37-1.62-1.54-1.73l-.19.06c.26,1.11,2.26,3.1,3.04,3.88.57.57,1.27,1.06,1.95,1.51.33.22.73.46,1.08.65.15.08,1.09.5,1.09.59,0,.19-.37,1.04-.39,1.45-.5-.12-2.33-1.33-2.71-1.67-.84-.76-1.45-1.31-2.19-2.2-.74-.89-1.16-1.61-1.7-2.69-.25-.5-.48-1-.72-1.49-.17-.35-.5-1.19-.96-1.2v.24c0,.58,1.1,2.66,1.38,3.15.59,1.01,1.13,1.78,1.8,2.68.68.92,1.4,1.5,2.2,2.27.36.35,2.21,1.72,2.66,1.82l-.33,3.08.04.63c0,3.23.97,6.37,2.06,8.55,1.03,2.07,2.89,4.6,4.6,5.95,1.06.83,1.86,1.52,3.08,2.23,1.19.69,2.27,1.12,3.67,1.62,1.07.38,3.05.85,4.42.88.39,0,.24.68.24,1.11v1.3c0,1.16.16,1.3.77,1.83h0Z"/>
        <g class="cls-4">
          <rect class="cls-3" y="10.02" width="53.75" height="43.13"/>
        </g>
      </g>
      <path class="cls-5" d="M345.55,27.6v-6.46l-3.99-8.78h3.14l2.3,5.73,2.28-5.73h3.06l-3.93,8.78v6.46h-2.86ZM354.39,21.77v.27c0,1.78.09,2.86.27,3.26.18.4.52.59,1.03.59s.88-.19,1.06-.56c.19-.37.28-1.34.28-2.9v-1.12c0-1.5-.09-2.44-.28-2.83-.19-.38-.53-.58-1.04-.58s-.84.18-1.03.53c-.19.35-.28,1.2-.28,2.55v.79h0ZM351.68,21.88c0-2.31.3-3.89.89-4.74.59-.86,1.64-1.29,3.14-1.29s2.55.43,3.14,1.29c.59.86.89,2.44.89,4.74s-.3,3.89-.89,4.74c-.59.85-1.64,1.28-3.14,1.28s-2.54-.43-3.14-1.28c-.59-.85-.89-2.43-.89-4.74h0ZM369.22,16.16v11.45h-2.59v-1.13c-.27.47-.61.83-1.02,1.07-.41.24-.87.36-1.39.36-.83,0-1.47-.24-1.9-.71-.44-.47-.66-1.15-.66-2.05v-9h2.55v7.48c0,.76.08,1.28.26,1.57.17.29.46.43.87.43.45,0,.76-.16.95-.48.18-.31.27-.88.27-1.69v-7.31h2.65ZM371.53,27.6v-11.45h2.54v1.86c.36-.77.75-1.32,1.16-1.65.41-.33.91-.5,1.51-.51v3.22c-.1-.01-.2-.02-.3-.03-.1,0-.22-.01-.36-.01-.57,0-1.02.17-1.35.5-.33.34-.5.79-.5,1.36v6.71h-2.69ZM437.97,38.39h1.19c.88,0,1.51-.17,1.86-.52.35-.34.53-.94.53-1.77s-.16-1.43-.49-1.76c-.33-.33-.95-.49-1.87-.49h-1.23v4.54h0ZM435.23,46.95v-15.24h4.93c1.5,0,2.58.34,3.24,1.01.66.67.99,1.77.99,3.3s-.35,2.62-1.05,3.36c-.7.74-1.78,1.1-3.22,1.1h-2.07v6.46h-2.82ZM450.63,40.96c-1,.5-1.67.95-2.02,1.35-.35.4-.53.86-.53,1.4,0,.51.09.88.28,1.12.19.24.48.36.88.36.46,0,.81-.2,1.04-.6.23-.4.35-1.01.35-1.81v-1.82h0ZM451,46.95c-.06-.08-.11-.22-.15-.38-.04-.17-.09-.42-.14-.72-.27.46-.63.81-1.07,1.05-.44.24-.95.36-1.54.36-.87,0-1.55-.29-2.03-.88-.48-.58-.73-1.4-.73-2.44,0-.94.21-1.69.64-2.25.42-.56,1.27-1.12,2.52-1.68.12-.06.3-.14.53-.24,1.04-.44,1.55-.96,1.55-1.56,0-.36-.1-.64-.3-.83-.2-.2-.49-.29-.87-.29-.48,0-.83.13-1.06.38-.23.26-.34.66-.34,1.21v.23h-2.57c0-1.29.31-2.22.95-2.81.63-.59,1.64-.88,3.03-.88s2.36.27,2.92.81c.56.54.84,1.48.84,2.82v6.46c0,.32.03.61.09.87.06.26.16.52.3.78h-2.57ZM455.43,46.95v-11.45h2.54v1.86c.36-.77.75-1.32,1.16-1.65.41-.33.92-.5,1.51-.51v3.22c-.1-.01-.2-.02-.3-.03-.1,0-.22-.01-.36-.01-.57,0-1.02.17-1.35.5-.33.34-.5.79-.5,1.36v6.71h-2.69ZM465.43,42.72v.77c0,.61.06,1,.17,1.17.11.17.33.25.63.25.07,0,.13,0,.17,0,.04,0,.08,0,.11,0v2.06c-.38.04-.68.07-.89.08-.22.01-.39.02-.52.02-.89,0-1.5-.18-1.83-.53-.33-.35-.5-1.08-.5-2.18v-6.87h-1.03v-1.97h1.03v-3.12h2.65v3.12h1.09v1.97h-1.09v5.25h0ZM468.14,46.95v-11.45h2.59v1.16c.28-.48.62-.85,1.02-1.09.4-.25.86-.37,1.37-.37.83,0,1.47.24,1.91.71.44.48.66,1.16.66,2.05v8.99h-2.55v-7.67c0-.67-.08-1.15-.26-1.42-.17-.27-.46-.41-.86-.41-.44,0-.76.17-.95.5-.19.34-.29.91-.29,1.71v7.29h-2.65ZM480.34,39.78h2.58v-.49c0-.78-.09-1.32-.29-1.62-.19-.3-.53-.45-1.01-.45s-.81.15-1,.46c-.2.31-.3.84-.3,1.61,0,0,0,.05.01.17,0,.11.01.22.01.32h0ZM483.01,43.02h2.49c0,.05,0,.13.01.23,0,.1,0,.17,0,.22,0,1.31-.31,2.26-.93,2.87-.62.61-1.61.92-2.96.92-.71,0-1.31-.09-1.79-.27-.48-.18-.87-.46-1.19-.83-.37-.44-.63-1-.78-1.67-.15-.67-.23-1.88-.23-3.63,0-1.39.07-2.39.2-2.98.13-.6.35-1.09.67-1.48.33-.4.76-.69,1.29-.89.53-.2,1.16-.3,1.89-.3s1.31.11,1.82.32c.51.22.94.54,1.27.98.28.38.49.86.61,1.44.12.58.18,1.51.18,2.8v.87h-5.21c-.01.08-.02.18-.02.27,0,.1,0,.25,0,.46,0,1.09.1,1.85.3,2.28.2.44.54.65,1.03.65s.81-.18,1.02-.53c.21-.35.32-.93.32-1.72h0ZM487.63,46.95v-11.45h2.54v1.86c.36-.77.75-1.32,1.16-1.65.41-.33.92-.5,1.51-.51v3.22c-.1-.01-.2-.02-.3-.03-.1,0-.22-.01-.36-.01-.57,0-1.02.17-1.35.5-.33.34-.5.79-.5,1.36v6.71h-2.69Z"/>
      <path class="cls-2" d="M345.41,38.16h1.63c.83,0,1.4-.17,1.72-.5.32-.33.48-.92.48-1.77,0-.76-.18-1.29-.52-1.59-.35-.3-.99-.46-1.91-.46h-1.39v4.32h0ZM342.68,46.95v-15.24h5.08c1.54,0,2.65.31,3.32.94.68.62,1.02,1.64,1.02,3.05,0,.99-.18,1.77-.55,2.34-.36.57-.9.9-1.6,1.01,1.35.35,2.05,1.49,2.11,3.41v.2l.08,2.02c.03.57.1,1.03.22,1.38.12.34.3.65.55.89h-3.37c-.08-.26-.14-.56-.18-.9-.04-.35-.06-.84-.08-1.47l-.04-1.59v-.41c0-.88-.19-1.49-.56-1.82-.37-.33-1.14-.49-2.3-.49h-.97v6.69h-2.74ZM356.98,39.78h2.58v-.49c0-.78-.09-1.32-.29-1.62-.19-.3-.53-.45-1.01-.45s-.81.15-1,.46c-.2.31-.3.84-.3,1.61,0,0,0,.05.01.17,0,.11.01.22.01.32h0ZM359.65,43.02h2.49c0,.05,0,.13.01.23,0,.1,0,.17,0,.22,0,1.31-.31,2.26-.93,2.87-.62.61-1.61.92-2.96.92-.71,0-1.31-.09-1.79-.27-.48-.18-.87-.46-1.19-.83-.37-.44-.63-1-.78-1.67-.15-.67-.23-1.88-.23-3.63,0-1.39.07-2.39.2-2.98.13-.6.35-1.09.67-1.48.33-.4.76-.69,1.29-.89.53-.2,1.16-.3,1.89-.3s1.31.11,1.82.32c.51.22.94.54,1.27.98.28.38.49.86.61,1.44.12.58.18,1.51.18,2.8v.87h-5.21c-.01.08-.02.18-.02.27,0,.1,0,.25,0,.46,0,1.09.1,1.85.3,2.28.2.44.54.65,1.03.65s.81-.18,1.02-.53c.21-.35.32-.93.32-1.72h0ZM371.78,46.05c0,1.01-.05,1.75-.14,2.21-.1.46-.26.86-.49,1.19-.3.44-.74.78-1.33,1.01-.59.23-1.3.35-2.13.35-1.13,0-2-.22-2.6-.66-.6-.44-.9-1.09-.92-1.93h2.61c.02.22.11.4.28.52.17.12.41.19.7.19.51,0,.86-.15,1.06-.46.2-.31.3-.87.3-1.68v-.79c-.22.43-.52.75-.87.96-.36.21-.79.31-1.29.31-1.13,0-1.92-.43-2.37-1.28-.45-.85-.67-2.45-.67-4.8s.23-3.78.68-4.66c.46-.87,1.24-1.31,2.34-1.31.56,0,1.04.12,1.43.37.39.25.69.63.91,1.13v-1.2h2.51v10.54h0ZM367.84,37.39c-.47,0-.79.23-.96.69-.17.46-.26,1.57-.26,3.35,0,1.55.09,2.54.26,2.96.17.43.49.64.96.64.53,0,.89-.25,1.08-.75.19-.5.29-1.76.29-3.79,0-1.27-.1-2.1-.29-2.5-.2-.4-.56-.6-1.08-.6h0ZM381.61,35.51v11.45h-2.59v-1.13c-.27.47-.61.83-1.02,1.07-.41.24-.87.36-1.39.36-.83,0-1.47-.24-1.9-.71-.44-.47-.66-1.15-.66-2.05v-9h2.55v7.48c0,.76.08,1.28.26,1.57.17.29.46.43.87.43.45,0,.76-.16.95-.48.18-.31.27-.88.27-1.69v-7.31h2.65ZM383.87,46.95v-15.24h2.63v15.24h-2.63ZM393.84,40.96c-1,.5-1.67.95-2.02,1.35-.35.4-.53.86-.53,1.4,0,.51.09.88.28,1.12.19.24.48.36.88.36.46,0,.81-.2,1.04-.6.23-.4.35-1.01.35-1.81v-1.82h0ZM394.21,46.95c-.06-.08-.11-.22-.15-.38-.04-.17-.09-.42-.14-.72-.27.46-.63.81-1.07,1.05-.44.24-.95.36-1.54.36-.87,0-1.55-.29-2.03-.88-.48-.58-.73-1.4-.73-2.44,0-.94.21-1.69.64-2.25.42-.56,1.27-1.12,2.52-1.68.12-.06.3-.14.53-.24,1.04-.44,1.55-.96,1.55-1.56,0-.36-.1-.64-.3-.83-.2-.2-.49-.29-.87-.29-.48,0-.83.13-1.06.38-.23.26-.34.66-.34,1.21v.23h-2.57c0-1.29.31-2.22.95-2.81.63-.59,1.64-.88,3.03-.88s2.36.27,2.92.81c.56.54.84,1.48.84,2.82v6.46c0,.32.03.61.09.87.06.26.16.52.3.78h-2.57ZM401.42,42.72v.77c0,.61.06,1,.17,1.17.11.17.33.25.63.25.07,0,.13,0,.17,0,.04,0,.08,0,.11,0v2.06c-.38.04-.68.07-.89.08-.22.01-.39.02-.52.02-.89,0-1.5-.18-1.83-.53-.33-.35-.5-1.08-.5-2.18v-6.87h-1.03v-1.97h1.03v-3.12h2.65v3.12h1.09v1.97h-1.09v5.25h0ZM406.5,41.12v.27c0,1.78.09,2.86.27,3.26.18.4.52.59,1.03.59s.88-.19,1.06-.56c.19-.37.28-1.34.28-2.9v-1.12c0-1.5-.09-2.44-.28-2.83-.19-.38-.53-.58-1.04-.58s-.84.18-1.03.53c-.19.35-.28,1.2-.28,2.55v.79h0ZM403.79,41.23c0-2.31.3-3.89.89-4.74.59-.86,1.64-1.29,3.14-1.29s2.55.43,3.14,1.29c.59.86.89,2.44.89,4.74s-.3,3.89-.89,4.74c-.59.85-1.64,1.28-3.14,1.28s-2.54-.43-3.14-1.28c-.59-.85-.89-2.43-.89-4.74h0ZM413.84,46.95v-11.45h2.54v1.86c.36-.77.75-1.32,1.16-1.65.41-.33.91-.5,1.51-.51v3.22c-.1-.01-.2-.02-.3-.03-.1,0-.22-.01-.36-.01-.57,0-1.02.17-1.35.5-.33.34-.5.79-.5,1.36v6.71h-2.69ZM421.62,50.71v-1.98c.05,0,.11,0,.17,0,.06,0,.15,0,.26,0,.38,0,.65-.06.82-.18.17-.12.26-.32.26-.59,0-.08,0-.19-.03-.31-.02-.12-.04-.23-.08-.34l-2.93-11.8h2.8l1.58,8.26,1.53-8.26h2.68l-2.97,12.53c-.27,1.09-.62,1.82-1.05,2.19-.44.37-1.14.56-2.09.56-.15,0-.29,0-.45-.02-.16-.01-.31-.03-.48-.06h0Z"/>
    </g>
  </g>
</svg>