<svg width="52" height="52" viewBox="0 0 52 52" fill="none" xmlns="http://www.w3.org/2000/svg">
<path d="M50.2597 48.1486C50.5033 48.75 50.3573 49.4324 49.9019 49.9037C49.5932 50.2131 49.1703 50.375 48.7482 50.375C48.553 50.375 48.342 50.3433 48.1468 50.2607L41.842 47.7423C39.0141 49.4657 35.7966 50.375 32.4982 50.375C25.5594 50.375 19.4006 46.3776 16.4593 40.3981C17.4511 40.5441 18.4746 40.625 19.4982 40.625C31.1493 40.625 40.6232 31.1511 40.6232 19.5C40.6232 18.4764 40.5423 17.4529 40.3955 16.4611C46.3758 19.4032 50.3732 25.562 50.3732 32.5C50.3732 35.7992 49.4631 39.0159 47.7405 41.8438L50.2597 48.1486ZM37.3732 19.5C37.3732 29.3563 29.3545 37.375 19.4982 37.375C16.1768 37.375 12.9657 36.4657 10.156 34.7375L3.85203 37.2592C3.65604 37.3369 3.45133 37.375 3.24821 37.375C2.82529 37.375 2.40952 37.21 2.09928 36.8989C1.63987 36.4387 1.49784 35.75 1.73905 35.147L4.26145 28.8422C2.53251 26.0302 1.62321 22.8198 1.62321 19.5C1.62321 9.64368 9.64188 1.625 19.4982 1.625C29.3545 1.625 37.3732 9.64368 37.3732 19.5ZM14.6232 19.5C14.6232 18.6018 13.8956 17.875 12.9982 17.875C12.1008 17.875 11.3732 18.6018 11.3732 19.5C11.3732 20.3982 12.1008 21.125 12.9982 21.125C13.8956 21.125 14.6232 20.3982 14.6232 19.5ZM21.1232 19.5C21.1232 18.6018 20.3956 17.875 19.4982 17.875C18.6008 17.875 17.8732 18.6018 17.8732 19.5C17.8732 20.3982 18.6008 21.125 19.4982 21.125C20.3956 21.125 21.1232 20.3982 21.1232 19.5ZM27.6232 19.5C27.6232 18.6018 26.8956 17.875 25.9982 17.875C25.1008 17.875 24.3732 18.6018 24.3732 19.5C24.3732 20.3982 25.1008 21.125 25.9982 21.125C26.8956 21.125 27.6232 20.3982 27.6232 19.5Z" fill="#F79839"/>
</svg>
