<svg width="37" height="37" viewBox="0 0 37 37" fill="none" xmlns="http://www.w3.org/2000/svg">
<path d="M13.2885 1.31354C14.6743 2.96841 18.0678 7.28496 20.7819 12.8652C24.1751 11.9106 27.7383 10.2179 31.2359 7.41282L32.0805 6.73559C28.7719 2.6311 23.7054 0 18.0352 0C16.2263 0 14.4792 0.268837 12.8306 0.766708L13.2885 1.31354Z" fill="white"/>
<path d="M32.5582 9.06164C29.189 11.7637 25.5512 13.6915 21.6842 14.8335C22.2231 16.0825 22.6926 17.3226 23.0913 18.5494C26.647 18.247 30.6632 18.7449 35.0402 20.0329L35.9292 20.2945C36.0222 19.5542 36.0704 18.8002 36.0704 18.0352C36.0704 14.5189 35.0579 11.2352 33.3106 8.45816L32.5582 9.06164Z" fill="white"/>
<path d="M2.19269 12.0059C3.98487 12.6856 7.95663 13.9297 12.9644 13.9298C14.7587 13.9299 16.6862 13.7698 18.6941 13.3672C16.203 8.37538 13.1806 4.47668 11.6681 2.67034L10.7283 1.54814C6.35516 3.4939 2.89444 7.12975 1.17954 11.6216L2.19269 12.0059Z" fill="white"/>
<path d="M6.9413 31.3513C7.73577 28.9862 9.72619 24.5728 14.1308 21.5881C16.1376 20.2282 18.4371 19.3058 20.9819 18.8335C20.5807 17.6389 20.1241 16.4783 19.6315 15.3612C17.7364 15.777 15.7903 16.012 13.7968 16.0619C13.5299 16.0687 13.2647 16.0719 13.0028 16.0719C7.76233 16.072 3.54512 14.7793 1.44317 13.9821L0.542536 13.6405C0.188877 15.0478 0 16.5198 0 18.0352C0 23.6912 2.61785 28.7465 6.70473 32.0557L6.9413 31.3513Z" fill="white"/>
<path d="M34.4437 22.0604C30.2274 20.8197 26.6827 20.4328 23.704 20.6295C23.972 21.6507 24.1892 22.6605 24.3542 23.6559C24.9903 27.4926 24.8603 31.1606 23.9677 34.5583L23.8204 35.1189C29.5901 33.1598 34.0559 28.354 35.5394 22.3828L34.4437 22.0604Z" fill="white"/>
<path d="M21.9235 34.0212C23.0954 29.5607 22.7323 25.0542 21.602 20.877C13.2979 22.3139 10.0864 28.6253 8.94469 32.0243L8.50311 33.3387C11.2707 35.0688 14.5379 36.0704 18.0352 36.0704C19.2102 36.0704 20.3589 35.9561 21.4718 35.7406L21.9235 34.0212Z" fill="white"/>
</svg>
