<svg width="37" height="37" viewBox="0 0 37 37" fill="none" xmlns="http://www.w3.org/2000/svg">
<path d="M18.0352 36.0704C8.07617 36.0704 0 27.9943 0 18.0352C0 8.07617 8.07617 0 18.0352 0C27.9943 0 36.0704 8.07617 36.0704 18.0352C36.0704 27.9943 27.9943 36.0704 18.0352 36.0704Z" fill="white"/>
<path d="M22.7244 36.0704V22.1003H27.4135L28.1169 16.6573H22.7244V13.1801C22.7244 11.6039 23.1608 10.529 25.4224 10.529H28.3045V5.66306C27.8067 5.59813 26.0933 5.45024 24.1023 5.45024C19.9469 5.45024 17.101 7.98599 17.101 12.6463V16.6609H12.401V22.104H17.101V36.0704H22.7244Z" fill="#333333"/>
</svg>
