<svg width="149" height="35" viewBox="0 0 149 35" fill="none" xmlns="http://www.w3.org/2000/svg">
<path d="M42.4427 0H1.14361C0.516469 0 0 0.516469 0 1.14361V35H42.4519C43.0791 35 43.5955 34.4835 43.5955 33.8564V1.15283C43.5955 0.516469 43.0791 0 42.4427 0ZM17.0988 20.6495H17.0896H11.6667L11.6574 29.0698V31.4769H3.96574V3.53228L27.0777 3.52306V3.53228H27.1054L27.0962 10.1173H11.6759L11.6667 15.6785H17.0896H17.108L17.0988 20.6495ZM39.6113 31.4862H31.8735V31.4769C31.8643 31.4769 31.8643 31.4769 31.8643 31.4769L31.8735 22.448V20.4743H27.0777L27.0685 25.4914V31.4862H19.3768V31.4769V30.4717V12.7734L27.087 10.5692V13.8986H31.8735V3.52306H39.6113V31.4862Z" fill="#09080C"/>
<path d="M47.7734 3.51953H58.3518L60.473 17.8884H60.556L62.7234 3.51953H72.7576V31.4826H65.0198L65.361 13.1664H65.2319L62.004 31.4826H57.1621L53.9342 13.1664H53.8512L54.1463 31.4826H47.7734V3.51953Z" fill="#09080C"/>
<path d="M76.1523 3.51953H90.7703V10.1045H83.844V15.2508H89.1563V19.6315H83.844V24.8977H91.0654V31.4826H76.1523V3.51953Z" fill="#09080C"/>
<path d="M93.7773 3.51953H102.318C110.221 3.51953 113.2 7.59595 113.2 17.4181C113.2 27.6645 110.35 31.4826 102.917 31.4826H93.7773V3.51953ZM102.871 24.8977C104.78 24.8977 105.462 23.0255 105.462 17.4181C105.462 11.9398 104.743 10.1045 102.742 10.1045H101.469V24.8977H102.871Z" fill="#09080C"/>
<path d="M116.047 3.51953H123.785V31.4826H116.047V3.51953Z" fill="#09080C"/>
<path d="M138.976 26.5946H134.383L133.7 31.4826H125.926L132.262 3.51953H142.545L148.881 31.4826H139.658L138.976 26.5946ZM138.339 21.9187L136.809 10.5288H136.596L135.019 21.9187H138.339Z" fill="#09080C"/>
</svg>
