<svg width="200" height="60" viewBox="0 0 200 60" fill="none" xmlns="http://www.w3.org/2000/svg">
<path fill-rule="evenodd" clip-rule="evenodd" d="M192.332 23.925H199.897C199.953 23.925 200 23.875 200 23.8133V16.3533C199.998 14.53 199.395 13.0467 198.173 12.01C197.05 11.0567 195.363 10.4817 193.108 10.3683C193.052 10.365 193.005 10.4133 193.005 10.4733V13.2867C193.005 13.3417 193.047 13.3867 193.098 13.3917C195.077 13.53 196.582 14.1683 196.582 16.3917L192.332 16.3933C192.275 16.3933 192.228 16.4433 192.228 16.505V23.815C192.228 23.875 192.275 23.925 192.332 23.925ZM28.6983 29.9633H19.525C19.3817 29.9633 19.29 30.0917 19.29 30.2183V35.145C19.29 35.3 19.4067 35.4 19.525 35.4H22.7833V39.3667C22.7833 42.3167 22.0633 43.9 19.525 43.9C17.405 43.9 15.9 42.615 15.9 38.6183V27.1C15.9 23.2733 17.04 21.48 19.565 21.48C21.8417 21.48 22.77 22.8783 22.77 25.49V26.9733C22.77 27.1283 22.8883 27.2267 23.0067 27.2267H28.6467C28.79 27.2267 28.8817 27.1 28.8817 26.9733V25.2333C28.9333 19.0367 25.6367 15.76 19.67 15.76C13.7033 15.76 9.81667 19.305 9.81667 26.76V39.085C9.81667 46.4267 14.3433 49.6183 19.3683 49.6183C24.995 49.6183 28.92 47.4017 28.92 39.1983V30.2033C28.9223 30.1408 28.9008 30.0797 28.8595 30.0325C28.8183 29.9855 28.7607 29.9558 28.6983 29.95V29.9633ZM46.2583 43.09H37.4383V16.6317C37.4383 16.475 37.3217 16.3767 37.2033 16.3767H31.6533C31.51 16.3767 31.42 16.5033 31.42 16.6317V48.78C31.42 48.935 31.5367 49.0333 31.6533 49.0333H46.245C46.3883 49.0333 46.48 48.9067 46.48 48.78V43.3583C46.48 43.2033 46.3633 43.1033 46.245 43.1033H46.2583V43.09ZM129.142 26.8433C129.142 19.4317 132.948 15.8167 138.772 15.8167C144.517 15.8167 148.377 19.445 148.35 26.8433V38.59C148.35 46.1017 144.778 49.56 138.772 49.56C132.765 49.56 129.142 46.1717 129.142 38.59V26.8433ZM138.772 43.9267C141.205 43.9267 142.213 42.1483 142.213 38.365V27.1117C142.213 23.3283 141.232 21.4933 138.772 21.4933C136.312 21.4933 135.33 23.3983 135.33 27.1117V38.365C135.33 42.1633 136.338 43.9267 138.772 43.9267ZM160.325 15.8167C154.502 15.8167 150.693 19.4317 150.693 26.8433V38.59C150.693 46.1733 154.318 49.56 160.325 49.56C166.332 49.56 169.903 46.1017 169.903 38.59V26.8433C169.93 19.445 166.07 15.8167 160.325 15.8167ZM163.767 38.3667C163.767 42.15 162.758 43.9283 160.325 43.9283C157.892 43.9283 156.883 42.1633 156.883 38.3667V27.1133C156.883 23.4 157.865 21.495 160.325 21.495C162.785 21.495 163.767 23.3283 163.767 27.1133V38.3667ZM108.808 16.3667H117.13V16.395C122.757 16.395 126.997 19.4867 126.997 27.1117V38.3083C126.997 45.8617 122.862 49.025 117.063 49.025H108.808C108.69 49.025 108.572 48.925 108.572 48.77V16.65C108.572 16.5083 108.663 16.3667 108.808 16.3667ZM116.803 43.08C119.315 43.08 120.887 41.3567 120.887 37.3333L120.898 37.3467V27.535C120.898 23.4683 119.25 21.83 116.75 21.83H114.46V43.08H116.803ZM78.4633 15.76H78.3717C72.64 15.76 69.6183 19.29 69.6183 24.585C69.6183 30.0967 73.1783 32.6617 76.115 34.7767L76.6833 35.1883L77.365 35.6833L77.3667 35.685L77.3683 35.6867C79.4417 37.1867 81.0417 38.3433 81.0417 40.8917C81.0417 43.025 79.7333 43.8717 78.215 43.9133C76.54 43.955 75.3233 42.5717 75.3233 40.835V38.025C75.324 37.983 75.3163 37.9413 75.3008 37.9023C75.2853 37.8635 75.2623 37.8278 75.233 37.7978C75.2038 37.7678 75.1688 37.7438 75.1303 37.7273C75.0917 37.7108 75.0503 37.7022 75.0083 37.7017H69.6433C69.46 37.7017 69.33 37.8417 69.33 38.0267V40.8767C69.33 46.51 72.4967 49.6317 78.0717 49.6317C83.645 49.6317 87.0217 46.44 87.0217 40.835C87.0217 34.9983 83.565 32.4767 80.5533 30.2767L80.4533 30.2033C80.1243 29.9627 79.7932 29.725 79.46 29.49C77.3967 28.0233 75.48 26.6617 75.48 24.5417C75.48 22.4383 76.8133 21.45 78.3583 21.45C80.0217 21.45 81.1983 22.735 81.1983 24.43V26.9133C81.1983 27.0967 81.3433 27.2383 81.5133 27.2383H86.8783C87.0617 27.2383 87.1917 27.0983 87.1917 26.915V24.5C87.205 18.9667 83.8683 15.7883 78.4633 15.76ZM97.735 15.76H97.8267C103.232 15.7883 106.555 18.965 106.555 24.5V26.915C106.555 27.0983 106.425 27.2383 106.242 27.2383H100.875C100.833 27.2377 100.792 27.2288 100.754 27.2122C100.715 27.1957 100.681 27.1717 100.651 27.1415C100.622 27.1115 100.599 27.076 100.584 27.0372C100.569 26.9983 100.561 26.9568 100.562 26.915V24.43C100.562 22.735 99.385 21.45 97.7217 21.45C96.1783 21.45 94.8433 22.4383 94.8433 24.5417C94.8433 26.66 96.76 28.0233 98.8233 29.49C99.1533 29.7233 99.4867 29.9617 99.8167 30.2033L99.9167 30.2767C102.93 32.4767 106.385 34.9983 106.385 40.835C106.385 46.44 103.008 49.6317 97.435 49.6317C91.86 49.6317 88.6933 46.5117 88.6933 40.8783V38.025C88.6933 37.8417 88.825 37.7017 89.0067 37.7017H94.3733C94.5433 37.7017 94.6867 37.8417 94.6867 38.0267V40.8333C94.6867 42.57 95.9033 43.9533 97.5783 43.9117C99.095 43.87 100.405 43.0217 100.405 40.89C100.405 38.34 98.805 37.185 96.7333 35.685C96.51 35.5233 96.28 35.3583 96.0483 35.185L95.485 34.7783L95.48 34.775C92.5417 32.66 88.98 30.095 88.98 24.5833C88.98 19.2883 92.005 15.7583 97.735 15.7583V15.76ZM190.185 26.4233V23.7267C190.185 19.6183 187.018 16.385 183.38 16.385H172.572C172.442 16.385 172.337 16.4983 172.337 16.6383V48.76C172.337 48.9 172.442 49.0133 172.572 49.0133H177.858C178.002 49.0133 178.093 48.8867 178.093 48.76V35.3883H180.685C183.093 35.3883 183.852 36.3483 183.852 38.7917V48.7317C183.852 48.8867 183.97 48.985 184.087 48.985H189.543C189.61 48.9833 189.672 48.9558 189.718 48.9087C189.765 48.8613 189.792 48.7978 189.792 48.7317V38.975C189.792 35.6417 188.942 33.51 186.77 32.635C188.955 31.675 190.185 29.755 190.185 26.4233ZM184.27 27.5533C184.27 28.8933 183.275 29.9667 182.045 29.9667H178.028V21.8067H182.045C183.275 21.8067 184.27 22.88 184.27 24.2067V27.5533ZM55.77 16.385H61.3983C61.5033 16.385 61.6067 16.4683 61.6333 16.5967L68.935 48.675C69.0017 48.8583 68.8683 49.0283 68.7 49.0283H63.3083C63.2167 49.0283 63.0983 48.9433 63.0733 48.815L61.9217 43.07H55.195L54.045 48.815C54.0368 48.8725 54.0085 48.9252 53.9653 48.964C53.922 49.0027 53.8663 49.0248 53.8083 49.0267H48.4167C48.26 49.0267 48.1417 48.8583 48.1817 48.675L55.5333 16.5967C55.5388 16.538 55.5662 16.4836 55.6102 16.4444C55.654 16.4051 55.7112 16.3839 55.77 16.385ZM58.5067 26.5783L56.2817 37.6767H60.7817L58.5583 26.5783L58.5317 26.7333L58.5067 26.5783ZM7.66667 16.3783H0.103333C0.0466667 16.3783 0 16.4283 0 16.4883V23.7967C0 23.8583 0.0466667 23.9083 0.103333 23.9083H4.35333C4.35333 26.1333 2.84833 26.7717 0.87 26.91C0.84392 26.9122 0.819665 26.9242 0.80228 26.9438C0.784897 26.9633 0.775722 26.9888 0.776667 27.015V29.83C0.776667 29.8883 0.825 29.9367 0.88 29.9333C3.135 29.82 4.82167 29.245 5.945 28.2917C7.16667 27.255 7.77 25.7717 7.77167 23.9483V16.4883C7.77167 16.4267 7.725 16.3767 7.66833 16.3767L7.66667 16.3783Z" fill="#00A264"/>
</svg>
