<?xml version="1.0" encoding="UTF-8"?><svg id="b" xmlns="http://www.w3.org/2000/svg" viewBox="0 0 257.88 257.88"><g id="c"><path d="M184.53,119.68l23.43,14.38c-.48.66-1.12,1.12-1.78,1.57-6.34,4.36-16.74,7.84-22.55,12.27-.76.57-1.37.7-1.11,1.9l25.44,14.4-78.34,43.6-1.8-.21-77.23-43.38c-.25-1.04.89-1.38,1.54-1.8,7.38-4.76,16.27-8.52,23.92-12.93l-25.45-15.41c-.22-1.07.88-1.37,1.54-1.8,6.9-4.47,15.54-7.8,22.58-12.26.12-.96-.74-1.45-1.39-1.96-1.63-1.3-22.92-11.81-22.06-13.09l78.85-42.76,78.89,42.73-.38,1.67-24.09,13.09ZM196.58,104.95l-65.96-35.89-65.1,35.07-1.54,1.8,66.57,36.48,64.25-34.91,1.78-2.56ZM195.91,134.4l-18.31-10.58-47.55,25.85-47.75-26.47-19.66,10.21c-.02,1.31,3.74,3.09,4.91,3.79,17.35,10.27,37.64,21.78,55.58,30.81,1.66.83,4.39,2.6,6.14,2.6l66.63-36.21ZM195.24,163.21c-5.1-1.37-16.22-10.85-20.92-9.93l-45.03,24.63-46.33-25.27-14.88,7.63-5.44,3.93,66.57,36.48,65.39-35.78.64-1.69Z"/><path d="M128.94,257.88C57.84,257.88,0,200.04,0,128.94S57.84,0,128.94,0s128.94,57.84,128.94,128.94-57.84,128.94-128.94,128.94ZM128.94,6C61.15,6,6,61.15,6,128.94s55.15,122.94,122.94,122.94,122.94-55.15,122.94-122.94S196.73,6,128.94,6Z"/><polygon points="130.75 80.87 83.04 105.72 174.91 105.74 130.75 80.87"/></g></svg>