<svg width="100" height="27" viewBox="0 0 100 27" fill="none" xmlns="http://www.w3.org/2000/svg">
<g clip-path="url(#clip0_5179_2656)">
<path fill-rule="evenodd" clip-rule="evenodd" d="M99.0648 4.81968C98.7149 4.42143 98.2439 4.22569 97.6181 4.22569C96.9923 4.22569 96.5011 4.43493 96.1579 4.87368C95.8214 5.29893 95.6465 5.93343 95.6465 6.75019V12.7442C94.8659 11.9004 94.0584 11.2997 93.2308 10.8947C92.7193 10.6449 92.1137 10.4627 91.4341 10.3749C91.0371 10.3277 90.6401 10.3007 90.196 10.3007C88.1369 10.3007 86.4681 11.0094 85.1896 12.4404C83.9245 13.8579 83.292 15.8357 83.292 18.3669C83.292 19.5617 83.4535 20.6822 83.7765 21.7082C84.0995 22.7274 84.557 23.6252 85.1761 24.3947C85.7952 25.1507 86.5421 25.7379 87.3832 26.1632C88.2244 26.5749 89.1462 26.7842 90.1488 26.7842C90.6064 26.7842 91.0438 26.7437 91.4408 26.6694C91.7167 26.6289 91.959 26.5547 92.2214 26.4804C92.8539 26.2712 93.4461 25.9674 93.9844 25.5827C94.5429 25.1844 95.088 24.6782 95.6465 24.0504V24.4487C95.6465 25.1979 95.8349 25.7649 96.205 26.1767C96.5885 26.5749 97.0596 26.7842 97.6181 26.7842C98.2035 26.7842 98.6745 26.5884 99.0312 26.2104C99.3878 25.8122 99.5897 25.2384 99.5897 24.4554V6.53419C99.5695 5.79169 99.4013 5.20443 99.0648 4.81968ZM94.8726 21.3639C94.516 22.1199 94.018 22.6937 93.4326 23.0649C92.827 23.4362 92.1676 23.6117 91.4341 23.6117H91.4206C90.6872 23.6117 90.0345 23.4159 89.4221 23.0379C88.8165 22.6397 88.332 22.0659 87.9821 21.2964C87.6322 20.5269 87.464 19.5819 87.464 18.4884C87.464 17.4422 87.6255 16.5242 87.9619 15.7547C88.2849 14.9717 88.756 14.3642 89.3481 13.9389C89.9537 13.5069 90.6266 13.3044 91.3937 13.3044H91.4341C92.1541 13.3044 92.8068 13.5137 93.4192 13.9254C94.0248 14.3372 94.5093 14.9312 94.8659 15.7007C95.2225 16.4702 95.3975 17.4152 95.3975 18.4884C95.4109 19.6359 95.236 20.5944 94.8726 21.3639ZM81.7914 21.5394C81.529 21.3167 81.1858 21.2019 80.7484 21.2019C80.3514 21.2019 80.0688 21.3032 79.8467 21.4652C79.3286 21.9377 78.9047 22.3224 78.5817 22.5992C78.2587 22.8624 77.902 23.1189 77.505 23.3687C77.1349 23.6049 76.7245 23.7939 76.314 23.8884C75.8901 24.0032 75.4459 24.0639 74.948 24.0639C74.8336 24.0639 74.7394 24.0639 74.6385 24.0504C74.0194 24.0099 73.434 23.8412 72.9158 23.5307C72.2968 23.1729 71.8123 22.6464 71.4287 21.9647C71.0721 21.2559 70.8702 20.4324 70.8568 19.5144H78.9989C80.089 19.5144 80.9301 19.3524 81.529 19.0689C82.1346 18.7584 82.4307 18.0969 82.4307 17.0777C82.4307 15.9707 82.1346 14.8907 81.5492 13.8309C80.9637 12.7712 80.1092 11.9072 78.9316 11.2457C77.7675 10.5774 76.3813 10.2534 74.7529 10.2534H74.6317C73.4272 10.2669 72.3237 10.4627 71.348 10.8407C70.3184 11.2389 69.4638 11.7992 68.7438 12.5214C68.0642 13.2572 67.5191 14.1347 67.1558 15.1674C66.7924 16.2002 66.5973 17.3207 66.5973 18.5087C66.5973 21.0602 67.3442 23.0582 68.8179 24.5499C70.2175 25.9539 72.1487 26.7032 74.6183 26.7774C74.7529 26.7909 74.9009 26.7909 75.0489 26.7909C76.1996 26.7909 77.2426 26.6424 78.1443 26.3454C79.046 26.0484 79.7929 25.6772 80.385 25.2249C80.9772 24.7659 81.428 24.2934 81.7107 23.8074C82.0067 23.3214 82.1548 22.8894 82.1548 22.5249C82.1952 22.0862 82.0606 21.7554 81.7914 21.5394ZM72.0949 14.1077C72.7543 13.4124 73.6089 13.0614 74.6452 13.0614H74.6586C75.7353 13.0614 76.6168 13.3989 77.2762 14.0807C77.9357 14.7624 78.3327 15.8087 78.4134 17.1992H70.8769C71.0182 15.8357 71.4153 14.8029 72.0949 14.1077ZM64.1075 21.1952C63.6971 21.1952 63.4144 21.2964 63.1924 21.4584C62.681 21.9309 62.2503 22.3157 61.9273 22.5924C61.6043 22.8557 61.2612 23.1122 60.8642 23.3619C60.4806 23.5982 60.0836 23.7872 59.6597 23.8817C59.2492 23.9964 58.7916 24.0572 58.2937 24.0572C58.1793 24.0572 58.0851 24.0572 57.9841 24.0437C57.3651 24.0032 56.7796 23.8344 56.2615 23.5239C55.6559 23.1662 55.1579 22.6397 54.8013 21.9579C54.4177 21.2492 54.2293 20.4257 54.2159 19.5077H62.3445C63.4212 19.5077 64.2623 19.3457 64.8746 19.0622C65.4668 18.7517 65.7696 18.0902 65.7696 17.0709C65.7696 15.9639 65.487 14.8839 64.9016 13.8242C64.3161 12.7644 63.4548 11.9004 62.284 11.2389C61.1199 10.5707 59.7202 10.2467 58.1053 10.2467H57.9707C56.7662 10.2602 55.6761 10.4559 54.6869 10.8339C53.6574 11.2322 52.8028 11.7924 52.0962 12.5147C51.4031 13.2504 50.8581 14.1279 50.4947 15.1607C50.1246 16.1934 49.9362 17.3139 49.9362 18.5019C49.9362 21.0534 50.6899 23.0514 52.1703 24.5432C53.5699 25.9472 55.4944 26.6964 57.9572 26.7707C58.1053 26.7842 58.2398 26.7842 58.3879 26.7842C59.552 26.7842 60.5815 26.6357 61.4832 26.3387C62.3849 26.0417 63.1318 25.6704 63.7173 25.2182C64.3229 24.7592 64.7603 24.2867 65.0563 23.8007C65.3524 23.3147 65.5005 22.8827 65.5005 22.5182C65.5005 22.1064 65.3659 21.7824 65.1034 21.5597C64.8746 21.3032 64.5113 21.1952 64.1075 21.1952ZM55.4271 14.1077C56.0865 13.4124 56.9411 13.0614 57.9774 13.0614H57.9909C59.0675 13.0614 59.949 13.3989 60.6084 14.0807C61.2746 14.7624 61.6649 15.8087 61.7591 17.1992H54.2159C54.3639 15.8357 54.7744 14.8029 55.4271 14.1077ZM9.0776 24.0639V14.3777C9.36022 14.4047 9.63611 14.4182 9.90527 14.4182C11.2578 14.4182 12.5229 14.0604 13.5995 13.4394V24.0707C13.5995 24.9752 13.3909 25.6502 12.967 26.0957C12.543 26.5412 11.998 26.7639 11.3184 26.7639C10.6589 26.7639 10.1273 26.5412 9.71013 26.0822C9.30639 25.6164 9.0776 24.9617 9.0776 24.0639ZM48.2203 4.81968C47.8704 4.42143 47.3927 4.22569 46.7803 4.22569C46.1478 4.22569 45.6633 4.43493 45.3201 4.87368C44.9702 5.29893 44.8087 5.93343 44.8087 6.75019V12.7442C44.0281 11.9004 43.2207 11.2997 42.393 10.8947C41.8749 10.6449 41.276 10.4627 40.6098 10.3749C40.2262 10.3277 39.8158 10.3007 39.3717 10.3007C37.3126 10.3007 35.6303 11.0094 34.3653 12.4404C33.1002 13.8579 32.4677 15.8357 32.4677 18.3669C32.4677 19.5617 32.6292 20.6822 32.9387 21.7082C33.2617 22.7274 33.7327 23.6252 34.3518 24.3947C34.9709 25.1507 35.7178 25.7379 36.5589 26.1632C37.4135 26.5749 38.3219 26.7842 39.3246 26.7842C39.7687 26.7842 40.2061 26.7437 40.6165 26.6694C40.8924 26.6289 41.1347 26.5547 41.3971 26.4804C42.0296 26.2712 42.6218 25.9674 43.1601 25.5827C43.7186 25.1844 44.2502 24.6782 44.8222 24.0504V24.4487C44.8222 25.1979 45.0106 25.7649 45.3807 26.1767C45.7373 26.5749 46.2353 26.7842 46.7938 26.7842C47.3523 26.7842 47.8368 26.5884 48.1934 26.2104C48.55 25.8122 48.725 25.2384 48.725 24.4554V6.53419C48.7115 5.79169 48.55 5.20443 48.2203 4.81968ZM44.0416 21.3639C43.685 22.1199 43.187 22.6937 42.5949 23.0649C42.0027 23.4362 41.3298 23.6117 40.6098 23.6117H40.5963C39.8629 23.6117 39.2102 23.4159 38.5978 23.0379C37.9787 22.6397 37.5077 22.0659 37.1578 21.2964C36.8079 20.5269 36.6397 19.5819 36.6397 18.4884C36.6397 17.4422 36.8012 16.5242 37.1242 15.7547C37.4606 14.9717 37.9182 14.3642 38.5238 13.9389C39.116 13.5069 39.8023 13.3044 40.556 13.3044H40.6031C41.3231 13.3044 41.9758 13.5137 42.5747 13.9254C43.1937 14.3372 43.6782 14.9312 44.0349 15.7007C44.3848 16.4702 44.5665 17.4152 44.5665 18.4884C44.5732 19.6359 44.3848 20.5944 44.0416 21.3639ZM20.2478 12.5012V13.0007C20.9947 12.0557 21.782 11.3739 22.6366 10.9217C23.5181 10.4897 24.5072 10.2602 25.6377 10.2602C26.7278 10.2602 27.7103 10.4964 28.5716 10.9554C29.4396 11.4144 30.0721 12.0759 30.4893 12.9332C30.772 13.4327 30.9469 13.9794 31.0209 14.5464C31.095 15.1067 31.1421 15.8492 31.1421 16.7469V24.2799C31.1421 25.1034 30.9469 25.7109 30.5566 26.1227C30.1865 26.5479 29.6751 26.7572 29.0695 26.7572C28.4505 26.7572 27.9525 26.5479 27.5555 26.1092C27.1585 25.6839 26.9701 25.0764 26.9701 24.2799V17.5299C26.9701 16.1867 26.7817 15.1674 26.3981 14.4587C26.028 13.7499 25.2609 13.3922 24.117 13.3922C23.37 13.3922 22.7039 13.6149 22.0983 14.0402C21.4926 14.4722 21.0351 15.0594 20.7457 15.8289C20.5506 16.4364 20.4496 17.5569 20.4496 19.2242V24.2867C20.4496 25.1169 20.2545 25.7177 19.8575 26.1362C19.4605 26.5479 18.9625 26.7572 18.3435 26.7572C17.7379 26.7572 17.2534 26.5479 16.8563 26.1092C16.4593 25.6839 16.2709 25.0764 16.2709 24.2799V12.5687C16.2709 11.7992 16.4459 11.2119 16.7891 10.8407C17.1255 10.4559 17.5965 10.2534 18.2022 10.2534C18.5588 10.2534 18.8818 10.3277 19.1779 10.5032C19.4739 10.6787 19.7095 10.9284 19.8979 11.2592C20.1738 11.6237 20.2478 12.0287 20.2478 12.5012ZM9.10452 0.857435C11.9038 -0.128065 15.1068 -0.074065 17.4956 1.95094C17.9397 2.36269 18.4511 2.86894 18.6463 3.48319C18.8952 4.23918 17.8051 3.40894 17.6436 3.29419C16.8631 2.79469 16.0825 2.37619 15.201 2.08594C10.4907 0.668435 6.02935 3.22668 3.257 7.22268C2.11979 8.97768 1.35941 10.8272 0.740343 12.8657C0.679782 13.0884 0.61922 13.3787 0.491369 13.5744C0.370247 13.7972 0.444266 12.9804 0.444266 12.9399C0.545201 12.0962 0.720156 11.2862 0.928755 10.4694C2.214 6.13594 5.04019 2.51794 9.10452 0.857435ZM14.5348 8.66044C14.5348 10.5032 13.0477 12.0017 11.2107 12.0017C9.37368 12.0017 7.88656 10.5099 7.88656 8.66044C7.88656 6.81094 9.37368 5.31919 11.2107 5.31919C13.0477 5.31919 14.5348 6.81094 14.5348 8.66044Z" fill="#003A9B"/>
</g>
<defs>
<clipPath id="clip0_5179_2656">
<rect width="100" height="27" fill="white"/>
</clipPath>
</defs>
</svg>
