<svg width="37" height="37" viewBox="0 0 37 37" fill="none" xmlns="http://www.w3.org/2000/svg">
<path d="M35.9718 10.6048C35.8873 8.68824 35.5773 7.37062 35.1334 6.22889C34.6753 5.01697 33.9707 3.93194 33.0475 3.02994C32.1455 2.11391 31.0533 1.40212 29.8555 0.951261C28.7071 0.507284 27.3964 0.197354 25.4798 0.112852C23.549 0.0211942 22.936 0 18.0387 0C13.1415 0 12.5285 0.0211942 10.6048 0.105696C8.68824 0.190197 7.37062 0.500403 6.22917 0.944105C5.01697 1.40212 3.93194 2.10676 3.02994 3.02994C2.11391 3.93194 1.40239 5.02412 0.951261 6.22201C0.507284 7.37062 0.197354 8.68108 0.112852 10.5976C0.0211942 12.5285 0 13.1415 0 18.0387C0 22.936 0.0211942 23.5489 0.105696 25.4727C0.190197 27.3892 0.500403 28.7068 0.94438 29.8486C1.40239 31.0605 2.11391 32.1455 3.02994 33.0475C3.93194 33.9636 5.02412 34.6753 6.22201 35.1262C7.37062 35.5702 8.68109 35.8801 10.5979 35.9646C12.5214 36.0494 13.1346 36.0703 18.0319 36.0703C22.9291 36.0703 23.5421 36.0494 25.4658 35.9646C27.3823 35.8801 28.7 35.5702 29.8414 35.1262C32.2655 34.189 34.1821 32.2724 35.1193 29.8486C35.563 28.7 35.8732 27.3892 35.9577 25.4727C36.0422 23.5489 36.0634 22.936 36.0634 18.0387C36.0634 13.1415 36.0563 12.5285 35.9718 10.6048ZM32.7236 25.3317C32.6459 27.0933 32.35 28.0446 32.1034 28.6788C31.4973 30.2502 30.2502 31.4973 28.6788 32.1034C28.0446 32.35 27.0865 32.6459 25.3317 32.7233C23.4292 32.8081 22.8586 32.829 18.0459 32.829C13.2332 32.829 12.6554 32.8081 10.7598 32.7233C8.99817 32.6459 8.04691 32.35 7.41274 32.1034C6.63075 31.8144 5.91896 31.3564 5.34121 30.7574C4.74227 30.1725 4.28425 29.4679 3.99524 28.6859C3.74862 28.0517 3.45273 27.0933 3.37538 25.3389C3.2906 23.4364 3.26969 22.8655 3.26969 18.0528C3.26969 13.24 3.2906 12.6623 3.37538 10.7669C3.45273 9.00533 3.74862 8.05407 3.99524 7.41989C4.28425 6.63763 4.74227 5.92612 5.34837 5.34809C5.933 4.74915 6.63764 4.29114 7.41989 4.0024C8.05407 3.75578 9.01249 3.45988 10.7669 3.38226C12.6694 3.29776 13.2403 3.27657 18.0528 3.27657C22.8727 3.27657 23.4433 3.29776 25.3389 3.38226C27.1005 3.45988 28.0518 3.75578 28.6859 4.0024C29.4679 4.29114 30.1797 4.74915 30.7575 5.34809C31.3564 5.933 31.8144 6.63763 32.1034 7.41989C32.35 8.05407 32.6459 9.01221 32.7236 10.7669C32.8081 12.6694 32.8293 13.24 32.8293 18.0528C32.8293 22.8655 32.8081 23.4292 32.7236 25.3317Z" fill="white"/>
<path d="M18.0387 8.77274C12.9232 8.77274 8.77274 12.923 8.77274 18.0387C8.77274 23.1545 12.9232 27.3047 18.0387 27.3047C23.1545 27.3047 27.3047 23.1545 27.3047 18.0387C27.3047 12.923 23.1545 8.77274 18.0387 8.77274ZM18.0387 24.0494C14.7201 24.0494 12.0281 21.3577 12.0281 18.0387C12.0281 14.7198 14.7201 12.0281 18.0387 12.0281C21.3577 12.0281 24.0494 14.7198 24.0494 18.0387C24.0494 21.3577 21.3577 24.0494 18.0387 24.0494Z" fill="white"/>
<path d="M29.8345 8.40639C29.8345 9.60097 28.8659 10.5696 27.6711 10.5696C26.4765 10.5696 25.5079 9.60097 25.5079 8.40639C25.5079 7.21153 26.4765 6.2432 27.6711 6.2432C28.8659 6.2432 29.8345 7.21153 29.8345 8.40639Z" fill="white"/>
</svg>
