<?xml version="1.0" encoding="utf-8"?>
<!-- Generator: Adobe Illustrator 26.4.1, SVG Export Plug-In . SVG Version: 6.00 Build 0)  -->
<svg version="1.0" id="katman_1" xmlns="http://www.w3.org/2000/svg" xmlns:xlink="http://www.w3.org/1999/xlink" x="0px" y="0px"
	 viewBox="0 0 634 476" style="enable-background:new 0 0 634 476;" xml:space="preserve">
<style type="text/css">
	.st0{fill:url(#SVGID_1_);}
	.st1{fill:#A93D8F;}
	.st2{fill:url(#SVGID_00000008846732902587765140000013205827231164244652_);}
	.st3{fill:url(#SVGID_00000041271114730547972480000013428532369655377554_);}
	.st4{fill-rule:evenodd;clip-rule:evenodd;fill:#FFFFFF;}
	.st5{fill:#262626;}
</style>
<linearGradient id="SVGID_1_" gradientUnits="userSpaceOnUse" x1="124.2306" y1="251.0681" x2="124.2306" y2="116.6462" gradientTransform="matrix(1 0 0 -1 54 422)">
	<stop  offset="0" style="stop-color:#E83F5F"/>
	<stop  offset="0.4999" style="stop-color:#A93D8F"/>
	<stop  offset="1" style="stop-color:#464C9B"/>
</linearGradient>
<path class="st0" d="M119.41,205.32c0-18.99,15.05-34.39,33.61-34.39c35.98,0,67.38,27.06,84.02,67.2h0
	c-16.65,40.15-48.04,67.22-84.03,67.22c-18.56,0-33.61-15.4-33.61-34.4c0-15.4,9.89-28.44,23.53-32.82
	C129.3,233.75,119.41,220.72,119.41,205.32z"/>
<path class="st1" d="M119.57,265c-10.73,0-19.43-6.16-19.43-13.75c0-6.16,5.72-11.37,13.6-13.12h54.41
	C158.53,254.18,140.38,265,119.57,265z"/>
<linearGradient id="SVGID_00000130644570425680539970000009896558024611622044_" gradientUnits="userSpaceOnUse" x1="114.1503" y1="197.3034" x2="46.1429" y2="197.3034" gradientTransform="matrix(1 0 0 -1 54 422)">
	<stop  offset="0" style="stop-color:#A93D8F;stop-opacity:0"/>
	<stop  offset="1" style="stop-color:#E83F5F"/>
</linearGradient>
<path style="fill:url(#SVGID_00000130644570425680539970000009896558024611622044_);" d="M119.57,211.26
	c-10.73,0-19.43,6.16-19.43,13.75c0,6.16,5.72,11.37,13.6,13.12h54.41C158.53,222.08,140.38,211.26,119.57,211.26z"/>
<linearGradient id="SVGID_00000091011090548303744570000009697565377246219160_" gradientUnits="userSpaceOnUse" x1="126.8925" y1="183.868" x2="126.8925" y2="150.9342" gradientTransform="matrix(1 0 0 -1 54 422)">
	<stop  offset="0" style="stop-color:#E83F5F;stop-opacity:0"/>
	<stop  offset="1" style="stop-color:#FFFFFF"/>
</linearGradient>
<path style="fill:url(#SVGID_00000091011090548303744570000009697565377246219160_);" d="M167.73,271.07
	c-9.69,0-17.55-7.55-17.55-16.85c0-7.55,5.16-13.93,12.28-16.08h49.13C202.91,257.8,186.52,271.07,167.73,271.07z"/>
<path class="st4" d="M200.8,224.86c3.81,0,6.89-3.08,6.89-6.89c0-3.81-3.08-6.89-6.89-6.89c-3.81,0-6.89,3.08-6.89,6.89
	C193.91,221.77,197,224.86,200.8,224.86z"/>
<path class="st5" d="M267.08,258.11h13.01v-40.87h-13.01V258.11z M273.6,212.48c3.7,0,6.68-2.79,6.68-6.23c0-3.43-2.98-6.2-6.68-6.2
	c-3.67,0-6.68,2.77-6.68,6.2C266.92,209.69,269.93,212.48,273.6,212.48z"/>
<path class="st5" d="M301.38,234.8c0.03-4.66,2.74-7.42,6.86-7.42c4.12,0,6.57,2.71,6.55,7.24v23.49h13.01v-26.05
	c0.03-9.21-5.59-15.35-14.18-15.35c-6.04,0-10.62,3.06-12.43,8.04h-0.45v-7.5h-12.37v40.87h13.01V234.8z"/>
<path class="st5" d="M374.04,217.24h-13.7l-7.56,28.15h-0.43l-7.53-28.15h-13.7l14,40.87h14.9L374.04,217.24z"/>
<path class="st5" d="M379.03,258.11h13.01v-40.87h-13.01V258.11z M385.55,212.48c3.7,0,6.68-2.79,6.68-6.23
	c0-3.43-2.98-6.2-6.68-6.2c-3.67,0-6.68,2.77-6.68,6.2C378.87,209.69,381.88,212.48,385.55,212.48z"/>
<path class="st5" d="M415.25,258.7c6.17,0,9.84-3.43,11.49-7.21h0.4v6.63h12.88v-54.49h-13.01v20.62h-0.27
	c-1.54-3.75-5.11-7.53-11.55-7.53c-8.54,0-16.28,6.57-16.28,20.99C398.91,251.62,406.23,258.7,415.25,258.7z M419.77,248.56
	c-4.82,0-7.5-4.28-7.5-10.88c0-6.57,2.66-10.8,7.5-10.8c4.76,0,7.53,4.12,7.53,10.8C427.3,244.3,424.51,248.56,419.77,248.56z"/>
<path class="st5" d="M467.23,258.88c10.72,0,17.77-5.19,19.26-13.22l-11.94-0.35c-1.01,2.71-3.67,4.18-7.08,4.18
	c-5,0-8.09-3.33-8.09-8.33v-0.35h27.25v-3.25c0-13.46-8.2-20.86-19.8-20.86c-12.35,0-20.27,8.46-20.27,21.13
	C446.56,250.93,454.38,258.88,467.23,258.88z M459.38,233.26c0.19-4.07,3.41-7.16,7.72-7.16c4.28,0,7.37,2.98,7.42,7.16H459.38z"/>
<path class="st5" d="M512.35,258.88c12.85,0,20.65-8.49,20.65-21.07c0-12.61-7.8-21.1-20.65-21.1c-12.85,0-20.64,8.49-20.64,21.1
	C491.71,250.4,499.5,258.88,512.35,258.88z M512.43,249.07c-4.82,0-7.48-4.58-7.48-11.33c0-6.78,2.66-11.39,7.48-11.39
	c4.66,0,7.31,4.6,7.31,11.39C519.75,244.49,517.09,249.07,512.43,249.07z"/>
</svg>
