<svg width="37" height="37" viewBox="0 0 37 37" fill="none" xmlns="http://www.w3.org/2000/svg">
<path d="M32.7237 0H3.34676C2.45914 0 1.60788 0.352604 0.980244 0.980244C0.352604 1.60788 0 2.45914 0 3.34676V32.7237C0 33.6113 0.352604 34.4625 0.980244 35.0902C1.60788 35.7178 2.45914 36.0704 3.34676 36.0704H32.7237C33.6113 36.0704 34.4625 35.7178 35.0902 35.0902C35.7178 34.4625 36.0704 33.6113 36.0704 32.7237V3.34676C36.0704 2.45914 35.7178 1.60788 35.0902 0.980244C34.4625 0.352604 33.6113 0 32.7237 0ZM12.2967 28.5448C12.297 28.6448 12.2775 28.7439 12.2394 28.8364C12.2014 28.9289 12.1454 29.013 12.0748 29.0838C12.0041 29.1546 11.9202 29.2108 11.8278 29.2491C11.7354 29.2875 11.6364 29.3072 11.5364 29.3072H8.2962C8.196 29.3075 8.09674 29.2879 8.00412 29.2497C7.9115 29.2115 7.82735 29.1554 7.7565 29.0845C7.68565 29.0137 7.6295 28.9295 7.59128 28.8369C7.55306 28.7443 7.53353 28.645 7.5338 28.5448V14.961C7.5338 14.7588 7.61412 14.5649 7.7571 14.4219C7.90008 14.279 8.094 14.1986 8.2962 14.1986H11.5364C11.7382 14.1992 11.9316 14.2797 12.0742 14.4227C12.2167 14.5656 12.2967 14.7592 12.2967 14.961V28.5448ZM9.91527 12.9116C9.30725 12.9116 8.71289 12.7313 8.20734 12.3935C7.70179 12.0557 7.30777 11.5756 7.07509 11.0138C6.84241 10.4521 6.78153 9.83398 6.90015 9.23764C7.01877 8.64131 7.31156 8.09354 7.74149 7.66361C8.17142 7.23368 8.71919 6.94089 9.31552 6.82227C9.91186 6.70365 10.53 6.76453 11.0917 6.99721C11.6534 7.22989 12.1336 7.62392 12.4714 8.12946C12.8092 8.63501 12.9895 9.22937 12.9895 9.83739C12.9895 10.6527 12.6656 11.4346 12.089 12.0112C11.5125 12.5877 10.7306 12.9116 9.91527 12.9116ZM29.2334 28.5981C29.2337 28.6902 29.2158 28.7815 29.1806 28.8667C29.1455 28.9518 29.0939 29.0292 29.0287 29.0943C28.9636 29.1595 28.8862 29.2111 28.8011 29.2462C28.7159 29.2813 28.6246 29.2993 28.5325 29.299H25.0484C24.9563 29.2993 24.8651 29.2813 24.7799 29.2462C24.6947 29.2111 24.6174 29.1595 24.5522 29.0943C24.4871 29.0292 24.4355 28.9518 24.4003 28.8667C24.3652 28.7815 24.3473 28.6902 24.3475 28.5981V22.2345C24.3475 21.2836 24.6263 18.0701 21.8615 18.0701C19.7199 18.0701 19.2833 20.2691 19.1973 21.257V28.6063C19.1973 28.7904 19.1248 28.9672 18.9956 29.0983C18.8664 29.2295 18.6907 29.3045 18.5066 29.3072H15.1414C15.0494 29.3072 14.9584 29.2891 14.8735 29.2538C14.7885 29.2186 14.7114 29.1669 14.6465 29.1018C14.5816 29.0367 14.5301 28.9594 14.4951 28.8744C14.4601 28.7893 14.4422 28.6983 14.4425 28.6063V14.9016C14.4422 14.8096 14.4601 14.7185 14.4951 14.6335C14.5301 14.5485 14.5816 14.4712 14.6465 14.4061C14.7114 14.341 14.7885 14.2893 14.8735 14.2541C14.9584 14.2188 15.0494 14.2007 15.1414 14.2007H18.5066C18.6925 14.2007 18.8708 14.2745 19.0022 14.406C19.1337 14.5374 19.2075 14.7157 19.2075 14.9016V16.0862C20.0027 14.8913 21.1811 13.9732 23.6958 13.9732C29.2662 13.9732 29.2293 19.1747 29.2293 22.0316L29.2334 28.5981Z" fill="white"/>
</svg>
