<?xml version="1.0" encoding="UTF-8"?><svg id="b" xmlns="http://www.w3.org/2000/svg" viewBox="0 0 257.88 257.88"><g id="c"><path d="M138.2,73.35l-14.38-23.43c-.66.48-1.12,1.12-1.57,1.78-4.36,6.34-7.84,16.74-12.27,22.55-.57.76-.7,1.37-1.9,1.11l-14.4-25.44-43.6,78.34.21,1.8,43.38,77.23c1.04.25,1.38-.89,1.8-1.54,4.76-7.38,8.52-16.27,12.93-23.92l15.41,25.45c1.07.22,1.37-.88,1.8-1.54,4.47-6.9,7.8-15.54,12.26-22.58.96-.12,1.45.74,1.96,1.39,1.3,1.63,11.81,22.92,13.09,22.06l42.76-78.85-42.73-78.89-1.67.38-13.09,24.09ZM152.93,61.3l35.89,65.96-35.07,65.1-1.8,1.54-36.48-66.57,34.91-64.25,2.56-1.78ZM123.49,61.97l10.58,18.31-25.85,47.55,26.47,47.75-10.21,19.66c-1.31.02-3.09-3.74-3.79-4.91-10.27-17.35-21.78-37.64-30.81-55.58-.83-1.66-2.6-4.39-2.6-6.14l36.21-66.63ZM94.67,62.64c1.37,5.1,10.85,16.22,9.93,20.92l-24.63,45.03,25.27,46.33-7.63,14.88-3.93,5.44-36.48-66.57,35.78-65.39,1.69-.64Z"/><path d="M128.94,257.88C57.84,257.88,0,200.04,0,128.94S57.84,0,128.94,0s128.94,57.84,128.94,128.94-57.84,128.94-128.94,128.94ZM128.94,6C61.15,6,6,61.15,6,128.94s55.15,122.94,122.94,122.94,122.94-55.15,122.94-122.94S196.73,6,128.94,6Z"/><polygon points="177.45 127.16 152.59 174.88 152.58 83 177.45 127.16"/></g></svg>