<svg width="413" height="415" viewBox="0 0 413 415" fill="none" xmlns="http://www.w3.org/2000/svg">
<path d="M412.252 196.268C412.212 195.602 412.192 194.916 412.131 194.25H390.075L364.144 149.33L387.754 108.426C387.29 107.558 386.826 106.711 386.341 105.863L361.843 148.321H311.051L285.12 103.401L311.051 58.4809H350.139C349.453 57.7948 348.767 57.1289 348.081 56.463H311.031L287.925 16.4869C286.653 15.9219 285.382 15.377 284.111 14.8523L308.71 57.472L282.799 102.392H231.987L206.056 57.472L231.987 12.5518H278.259C276.422 11.8455 274.566 11.1594 272.709 10.5338H231.987L226.033 0.262347C225.045 0.161448 224.036 0.0605393 223.027 0L229.706 11.5428L203.775 56.463H152.963L128.323 13.7828C127.556 14.0855 126.769 14.3882 126.002 14.7111L150.682 57.472L124.751 102.392H73.9387L52.6894 65.6044C52.084 66.23 51.4988 66.8757 50.9337 67.5215L71.6583 103.401L45.7273 148.321H5.67051C5.44853 148.987 5.26696 149.673 5.08534 150.339H45.7273L71.6583 195.28L45.7273 240.2H0C0.080719 240.866 0.201805 241.552 0.322883 242.218H45.7273L71.6583 287.138L45.7273 332.058H39.3707C39.8752 332.744 40.3999 333.41 40.9245 334.076H45.7273L55.3329 350.704C57.4921 352.984 59.7321 355.204 62.0326 357.384L48.0077 333.087L73.9387 288.167H124.751L150.682 333.087L124.751 378.007H87.4995C88.4883 378.693 89.4972 379.359 90.5062 380.025H124.751L138.272 403.454C139.442 403.857 140.613 404.241 141.803 404.604L127.032 379.036L152.963 334.116H203.775L229.706 379.036L209.325 414.351C210.293 414.331 211.262 414.29 212.231 414.25L231.987 380.045H282.779L291.658 395.422C292.425 395.079 293.172 394.736 293.918 394.353L285.079 379.036L311.01 334.116H361.803L364.749 339.222C365.334 338.536 365.879 337.849 366.444 337.163L364.103 333.107L390.034 288.187H395.907C396.189 287.521 396.472 286.855 396.754 286.169H390.034L364.103 241.249L390.034 196.309H412.212L412.252 196.268ZM311.051 332.078L285.12 287.158L311.051 242.238H361.843L387.774 287.158L361.843 332.078H311.051ZM232.027 196.268H282.819L308.75 241.209L282.839 286.129H232.027L206.096 241.209L232.027 196.268ZM203.816 240.22H153.003L127.072 195.28L153.003 150.359H203.816L229.747 195.3L203.816 240.22ZM206.096 333.087L232.027 288.167H282.819L308.75 333.087L282.819 378.007H232.027L206.096 333.087ZM127.072 287.138L153.003 242.218H203.816L229.747 287.138L203.816 332.058H153.003L127.072 287.138ZM73.9992 196.268H124.812L150.743 241.209L124.812 286.129H73.9992L48.0682 241.209L73.9992 196.268ZM124.792 104.41L150.723 149.33L124.792 194.25H73.979L48.048 149.33L73.979 104.41H124.792ZM229.767 103.401L203.836 148.321H153.023L127.092 103.401L153.023 58.4809H203.836L229.767 103.401ZM308.75 149.33L282.839 194.25H232.027L206.096 149.33L232.027 104.41H282.819L308.75 149.33ZM387.774 195.28L361.843 240.2H311.051L285.12 195.259L311.051 150.339H361.843L387.774 195.28Z" fill="url(#paint0_radial_3634_1934)"/>
<path d="M212.332 150.339C212.332 146.263 209.022 142.953 204.946 142.953C200.869 142.953 197.56 146.263 197.56 150.339C197.56 154.415 200.869 157.725 204.946 157.725C209.022 157.725 212.332 154.415 212.332 150.339Z" fill="#F3EDDE"/>
<path d="M238.526 103.987C238.526 99.9103 235.216 96.6008 231.14 96.6008C227.063 96.6008 223.754 99.9103 223.754 103.987C223.754 108.063 227.063 111.372 231.14 111.372C235.216 111.372 238.526 108.063 238.526 103.987Z" fill="#F3EDDE"/>
<path d="M157.907 241.047C157.907 236.971 154.597 233.661 150.521 233.661C146.444 233.661 143.135 236.971 143.135 241.047C143.135 245.123 146.444 248.433 150.521 248.433C154.597 248.433 157.907 245.123 157.907 241.047Z" fill="#F3EDDE"/>
<path d="M238.526 194.694C238.526 190.618 235.216 187.308 231.14 187.308C227.063 187.308 223.754 190.618 223.754 194.694C223.754 198.771 227.063 202.08 231.14 202.08C235.216 202.08 238.526 198.771 238.526 194.694Z" fill="#F3EDDE"/>
<path d="M214.35 241.047C214.35 236.971 211.041 233.661 206.964 233.661C202.888 233.661 199.579 236.971 199.579 241.047C199.579 245.123 202.888 248.433 206.964 248.433C211.041 248.433 214.35 245.123 214.35 241.047Z" fill="#F3EDDE"/>
<path d="M238.526 287.4C238.526 283.324 235.216 280.014 231.14 280.014C227.063 280.014 223.754 283.324 223.754 287.4C223.754 291.476 227.063 294.786 231.14 294.786C235.216 294.786 238.526 291.476 238.526 287.4Z" fill="#F3EDDE"/>
<path d="M290.932 194.694C290.932 190.618 287.623 187.308 283.546 187.308C279.47 187.308 276.16 190.618 276.16 194.694C276.16 198.771 279.47 202.08 283.546 202.08C287.623 202.08 290.932 198.771 290.932 194.694Z" fill="#F3EDDE"/>
<path d="M317.125 241.047C317.125 236.971 313.816 233.661 309.739 233.661C305.663 233.661 302.354 236.971 302.354 241.047C302.354 245.123 305.663 248.433 309.739 248.433C313.816 248.433 317.125 245.123 317.125 241.047Z" fill="#F3EDDE"/>
<path d="M133.731 194.694C133.731 190.618 130.422 187.308 126.346 187.308C122.269 187.308 118.96 190.618 118.96 194.694C118.96 198.771 122.269 202.08 126.346 202.08C130.422 202.08 133.731 198.771 133.731 194.694Z" fill="#F3EDDE"/>
<path d="M317.125 150.339C317.125 146.263 313.816 142.953 309.739 142.953C305.663 142.953 302.354 146.263 302.354 150.339C302.354 154.415 305.663 157.725 309.739 157.725C313.816 157.725 317.125 154.415 317.125 150.339Z" fill="#F3EDDE"/>
<path d="M290.932 103.987C290.932 99.9103 287.623 96.6008 283.546 96.6008C279.47 96.6008 276.16 99.9103 276.16 103.987C276.16 108.063 279.47 111.372 283.546 111.372C287.623 111.372 290.932 108.063 290.932 103.987Z" fill="#F3EDDE"/>
<path d="M159.925 148.342C159.925 144.265 156.616 140.956 152.539 140.956C148.463 140.956 145.154 144.265 145.154 148.342C145.154 152.418 148.463 155.727 152.539 155.727C156.616 155.727 159.925 152.418 159.925 148.342Z" fill="#F3EDDE"/>
<defs>
<radialGradient id="paint0_radial_3634_1934" cx="0" cy="0" r="1" gradientUnits="userSpaceOnUse" gradientTransform="translate(250.713 189.609) scale(206.641 206.641)">
<stop offset="0.12" stop-color="#F79839"/>
<stop offset="0.5" stop-color="#F79839" stop-opacity="0.27"/>
<stop offset="0.64" stop-color="#F79839" stop-opacity="0"/>
</radialGradient>
</defs>
</svg>
