<?xml version="1.0" encoding="UTF-8"?><svg id="b" xmlns="http://www.w3.org/2000/svg" viewBox="0 0 257.88 257.88"><g id="c"><path d="M128.94,257.88C57.84,257.88,0,200.04,0,128.94S57.84,0,128.94,0s128.94,57.84,128.94,128.94-57.84,128.94-128.94,128.94ZM128.94,6C61.15,6,6,61.15,6,128.94s55.15,122.94,122.94,122.94,122.94-55.15,122.94-122.94S196.73,6,128.94,6Z"/><rect x="78.62" y="73.89" width="7" height="105.91"/><path d="M121.83,154.14v25.67h7v-17.31c-.65-.56-1.28-1.14-1.89-1.75-1.99-2.01-3.7-4.23-5.11-6.6Z"/><path d="M128.83,110.77v-36.87h-7v45.43c1.87-3.21,4.24-6.1,7-8.55Z"/><path d="M168.75,73.89h-7v29.52c2.45.73,4.79,1.74,7,2.99v-32.52Z"/><path d="M165.77,168.44c-1.31.58-2.65,1.07-4.02,1.47v9.9h7v-6.95l-.32-.32c-1.19-1.19-2.08-2.59-2.67-4.1Z"/><path d="M198.9,174.44l-16.16-16.16c-1-.95-2.3-1.44-3.62-1.44-.95,0-1.91.26-2.77.79l-3.31-3.31c10.67-12.5,7.09-30.37-4.29-39.47-2.08-1.67-4.43-3.03-7-4.03-2.96-1.15-6.21-1.79-9.71-1.79-.09,0-.17,0-.26,0-9.57.01-17.99,4.88-22.96,12.26-2.95,4.4-4.68,9.69-4.69,15.38-.05,5.91,1.73,11.14,4.69,15.43,5.24,7.6,14.2,12.21,23.35,12.21,3.22,0,6.46-.57,9.57-1.78,2.44-.95,4.79-2.28,7-4.04.23-.18.46-.37.69-.56l3.3,3.3c-1.31,2.02-1.04,4.68.66,6.39l16.16,16.16c1,.99,2.3,1.48,3.6,1.48s2.61-.49,3.6-1.48l2.12-2.12c1.98-2,1.97-5.21,0-7.21ZM168.75,151.64c-1.86,2.13-4.19,3.94-7,5.26-2.84,1.33-6.16,2.16-9.96,2.31-12.46,0-22.55-10.09-22.55-22.55,0-12.46,10.1-22.55,22.55-22.55h0c3.81.16,7.13.99,9.96,2.31,2.81,1.31,5.14,3.12,7,5.25,7.26,8.33,7.26,21.64,0,29.97ZM193.17,180.16l-16.16-16.16,2.12-2.12,16.17,16.16-2.12,2.12Z"/><path d="M165.09,129.06c-.5-.66-1.26-1-2.03-1-.45,0-.9.13-1.3.37-.06.03-.12.06-.17.1l-14.71,10.83-4.53-4.78c-.5-.53-1.18-.79-1.85-.79-.63,0-1.26.23-1.75.7-1.02.97-1.06,2.58-.09,3.6l6.08,6.41c.5.52,1.17.79,1.85.79.53,0,1.06-.16,1.51-.5l13.67-10.07,2.85-2.1c1.12-.85,1.34-2.45.48-3.57Z"/></g></svg>