<svg width="183" height="188" viewBox="0 0 183 188" fill="none" xmlns="http://www.w3.org/2000/svg">
<path d="M100.723 87.9424H100.416L97.9034 83.8579L95.7889 87.834L95.6985 88.1231L91.0356 89.2617L94.1622 92.4969L94.4153 92.6595L94.0538 97.4489L98.0842 95.4789L98.3191 95.2982L102.783 97.1236L102.151 92.6595L102.042 92.3704L105.151 88.7196L100.723 87.9424Z" fill="#F3EDDE"/>
<path d="M135.749 103.395L181.311 52.3571L174.425 31.8803L145.056 64.6286L120.549 59.8935L86.0839 0.794678L64.4866 1.01155L86.5538 39.0553L74.481 60.9056L7.61078 75.4183L1.15869 96.0216L44.1725 86.8043L61.2154 105.04L54.3657 173.121L71.9689 185.628L76.4871 141.873L99.0965 131.3L161.72 158.861L179.052 145.993L138.839 128.173L135.767 103.395H135.749ZM116.248 98.859L118.688 119.372L98.4459 110.534L97.3434 111.366L78.5835 120.041L80.7342 98.0637L79.5956 97.2685L65.571 82.1234L87.1322 77.3882L87.5478 76.0689L97.6326 58.032L108.802 77.081H110.175L130.435 81.0751L115.778 97.5939L116.212 98.9132L116.248 98.859Z" stroke="#F79839" stroke-width="1.58028" stroke-miterlimit="10"/>
</svg>
