<svg width="57" height="57" viewBox="0 0 57 57" fill="none" xmlns="http://www.w3.org/2000/svg">
<path fill-rule="evenodd" clip-rule="evenodd" d="M54.2516 37.4176C54.2516 36.1463 53.7395 34.9286 52.8297 34.0302C51.92 33.1317 50.6869 32.626 49.3994 32.626H46.1637C43.483 32.626 41.3115 34.7704 41.3115 37.4176V39.0139C41.3115 39.8954 42.0353 40.6102 42.9279 40.6102H52.6323C53.525 40.6102 54.2488 39.8954 54.2488 39.0139V37.4176H54.2516ZM38.2731 32.7786C38.2731 31.219 37.6466 29.7245 36.5308 28.6254C35.415 27.5236 33.9016 26.9049 32.3252 26.9049H24.3917C22.8124 26.9049 21.299 27.5236 20.1861 28.6254C19.0703 29.7273 18.4437 31.2219 18.4437 32.7786V38.6551C18.4437 39.7372 19.3335 40.613 20.4264 40.613H36.2933C37.3891 40.613 38.276 39.7343 38.276 38.6551V32.7786H38.2731ZM52.6352 26.2381C52.6352 23.5909 50.4637 21.4465 47.783 21.4465C45.1023 21.4465 42.9308 23.5909 42.9308 26.2381C42.9308 28.8854 45.1023 31.0297 47.783 31.0297C50.4637 31.0297 52.6352 28.8854 52.6352 26.2381ZM34.3078 19.0676C34.3078 15.8214 31.6443 13.1911 28.357 13.1911C25.0697 13.1911 22.4062 15.8214 22.4062 19.0676C22.4062 22.3138 25.0697 24.9441 28.357 24.9441C31.6443 24.9441 34.3078 22.3138 34.3078 19.0676ZM46.1351 14.906L42.2785 16.8102C41.609 17.1408 40.8165 17.1069 40.1814 16.7198C39.5463 16.33 39.16 15.6462 39.16 14.9089V2.13024C39.16 0.954935 40.127 0 41.3172 0H54.2574C55.4475 0 56.4145 0.954935 56.4145 2.13024V12.7786C56.4145 13.9539 55.4475 14.9089 54.2574 14.9089H46.1408L46.1351 14.906Z" fill="white"/>
<path d="M43.4601 50.0098L42.7076 48.5604C42.1612 47.5094 40.8337 47.1365 39.8009 47.7298C36.3019 49.7442 32.2107 50.8602 27.8506 50.7556C16.072 50.4675 6.37043 41.1667 5.75532 29.5465C5.08872 16.9459 15.0249 6.44157 27.5245 5.95846C27.5588 5.96128 27.5931 5.96976 27.6303 5.96976H28.4857C29.1581 5.96976 29.7017 5.43296 29.7017 4.76902V1.48326C29.7017 0.847575 29.1981 0.33338 28.5658 0.291001V0.282525C28.543 0.282525 28.5201 0.282525 28.4972 0.282525C28.4943 0.282525 28.4915 0.282525 28.4886 0.282525H27.6332C27.5702 0.282525 27.5073 0.291001 27.4472 0.302302C12.3127 0.805197 0.18215 12.9905 0.00190868 28.0152C-0.178333 43.4128 12.43 56.1999 28.0194 56.4118C33.3694 56.4853 38.3876 55.0952 42.6876 52.626C43.6088 52.0976 43.9436 50.9449 43.4572 50.0098H43.4601Z" fill="white"/>
</svg>
