<?xml version="1.0" encoding="UTF-8"?>
<svg id="Layer_2" data-name="Layer 2" xmlns="http://www.w3.org/2000/svg" viewBox="0 0 137.34 32.96">
  <defs>
    <style>
      .cls-1 {
        fill: #fff;
      }

      .cls-1, .cls-2, .cls-3 {
        fill-rule: evenodd;
      }

      .cls-4, .cls-2 {
        fill: #b72125;
      }

      .cls-5, .cls-3 {
        fill: #151616;
      }
    </style>
  </defs>
  <g id="Layer_1-2" data-name="Layer 1">
    <g>
      <path class="cls-4" d="M42.92,10.11h2.72c.03.6.2,1.02.54,1.33.37.28.88.43,1.53.43.6,0,1.02-.09,1.33-.26.34-.17.48-.43.48-.74,0-.17-.03-.31-.11-.45-.06-.11-.17-.23-.31-.28-.2-.09-.71-.26-1.5-.48-.79-.2-1.47-.43-2.01-.62-.79-.28-1.39-.68-1.81-1.16-.4-.48-.62-1.05-.62-1.67,0-.96.4-1.76,1.19-2.32.79-.6,1.87-.88,3.2-.88s2.38.31,3.17.91c.77.62,1.16,1.45,1.16,2.47h-2.66c-.06-.48-.23-.82-.54-1.05-.31-.23-.74-.34-1.3-.34-.45,0-.82.09-1.11.26s-.43.4-.43.68c0,.45.68.88,2.01,1.28.26.06.45.11.57.17l.11.03c1.39.43,2.27.77,2.64,1.02.34.26.6.6.79.94.2.37.28.79.28,1.22,0,1.02-.43,1.81-1.28,2.38-.82.57-2.01.85-3.51.85s-2.52-.31-3.29-.91c-.74-.62-1.16-1.53-1.25-2.78h0ZM61.8,5.97v7.54h-2.61v-1.05c-.31.43-.65.74-1.08.94-.4.2-.85.31-1.39.31-.88,0-1.56-.23-2.01-.65s-.68-1.05-.68-1.9v-5.19h2.66v4.22c0,.62.09,1.05.26,1.28.17.23.45.34.85.34.48,0,.82-.14,1.02-.43.23-.28.31-.74.31-1.39v-4.03h2.66ZM64.04,16.54V5.97h2.66v.99c.28-.4.62-.71,1.02-.91.4-.2.85-.28,1.39-.28.99,0,1.84.34,2.47,1.08.62.74.96,1.7.96,2.86s-.34,2.15-.96,2.92c-.65.74-1.45,1.13-2.44,1.13-.54,0-1.02-.11-1.45-.31-.4-.2-.74-.48-1.02-.88v3.97h-2.64ZM69.76,9.83c0-.68-.11-1.19-.4-1.56-.28-.34-.65-.54-1.16-.54s-.91.2-1.16.54c-.26.34-.4.88-.4,1.56,0,.62.14,1.13.43,1.47s.65.51,1.16.51c.48,0,.85-.17,1.13-.54.28-.34.4-.82.4-1.45h0ZM76.45,8.95l3.03-.03c-.03-.48-.14-.85-.43-1.13-.26-.26-.62-.4-1.11-.4-.43,0-.77.14-1.05.4-.26.26-.4.65-.45,1.16h0ZM79.35,11.13h2.55c-.23.85-.71,1.47-1.39,1.93-.71.45-1.59.68-2.61.68-1.28,0-2.27-.34-3-1.05-.74-.74-1.11-1.7-1.11-2.92s.37-2.24,1.11-2.98,1.73-1.08,3-1.08,2.3.37,3.03,1.11,1.11,1.76,1.11,3.06v.28c0,.06,0,.11-.03.17h-5.5c0,.51.14.94.37,1.22.26.28.62.4,1.11.4.34,0,.65-.06.88-.2.23-.14.4-.34.48-.62h0ZM83.74,13.51v-7.54h2.55v1.3c.28-.51.65-.88,1.08-1.13.43-.23.96-.37,1.62-.37v2.44c-.11,0-.23,0-.34-.03h-.34c-.4,0-.74.06-.99.17-.28.11-.48.28-.65.51-.09.17-.17.4-.2.68-.06.31-.09.77-.09,1.45v2.52h-2.64ZM90.54,13.51V3.28h2.66v3.66c.28-.4.65-.71,1.05-.88.43-.2.88-.28,1.45-.28.85,0,1.5.2,1.96.65.43.43.65,1.05.65,1.9v5.19h-2.66v-3.8c0-.88-.09-1.45-.23-1.7-.17-.23-.45-.37-.88-.37-.48,0-.82.14-1.05.45-.2.28-.31.74-.31,1.39v4.03h-2.64ZM102.7,9.74c0,.68.14,1.22.43,1.59.26.37.65.54,1.16.54s.88-.17,1.16-.54c.28-.37.43-.91.43-1.59s-.14-1.22-.43-1.59c-.28-.37-.65-.57-1.16-.57s-.91.2-1.19.57c-.26.37-.4.88-.4,1.59h0ZM99.98,9.71c0-1.25.37-2.24,1.13-2.95.77-.71,1.81-1.08,3.17-1.08s2.41.37,3.17,1.08c.77.71,1.13,1.7,1.13,2.95s-.37,2.27-1.13,2.98c-.77.74-1.84,1.08-3.17,1.08s-2.41-.34-3.17-1.08c-.77-.71-1.13-1.7-1.13-2.98h0ZM118.07,5.97v7.54h-2.61v-1.05c-.31.43-.68.74-1.08.94s-.88.31-1.39.31c-.91,0-1.59-.23-2.04-.65-.45-.43-.68-1.05-.68-1.9v-5.19h2.66v4.22c0,.62.09,1.05.26,1.28.17.23.45.34.88.34.45,0,.79-.14,1.02-.43.2-.28.31-.74.31-1.39v-4.03h2.66ZM119.85,11.22h2.69c.03.34.14.57.4.74.23.17.57.26,1.02.26.37,0,.68-.06.88-.2.23-.14.31-.31.31-.54,0-.28-.4-.54-1.25-.74-.45-.11-.82-.2-1.08-.28-1.02-.31-1.73-.65-2.1-.96-.37-.34-.57-.79-.57-1.33,0-.77.31-1.36.96-1.81.62-.43,1.47-.65,2.58-.65,1.19,0,2.1.2,2.72.57.65.37.99.94,1.08,1.67h-2.55c-.06-.26-.17-.45-.37-.57-.2-.14-.48-.2-.82-.2-.31,0-.57.06-.74.17-.17.11-.26.28-.26.48,0,.31.43.57,1.3.79.2.03.37.09.48.11.82.23,1.39.37,1.7.48.31.11.54.23.68.31.28.2.51.43.65.71.14.26.2.57.2.91,0,.82-.34,1.47-1.02,1.93-.71.48-1.67.71-2.89.71s-2.15-.23-2.86-.68c-.71-.43-1.08-1.08-1.16-1.87h0ZM131.76,8.95l3.03-.03c0-.48-.14-.85-.43-1.13-.26-.26-.62-.4-1.08-.4s-.79.14-1.05.4c-.28.26-.43.65-.48,1.16h0ZM134.65,11.13h2.58c-.26.85-.71,1.47-1.42,1.93-.71.45-1.56.68-2.61.68-1.28,0-2.27-.34-3-1.05-.71-.74-1.08-1.7-1.08-2.92s.37-2.24,1.11-2.98,1.73-1.08,2.98-1.08,2.3.37,3.03,1.11,1.11,1.76,1.11,3.06v.45h-5.5c0,.51.11.94.37,1.22.26.28.6.4,1.08.4.37,0,.65-.06.88-.2.23-.14.4-.34.48-.62h0ZM51.74,29.43l-.23-1.33c-.43.54-.91.94-1.5,1.22-.57.26-1.25.4-2.01.4s-1.42-.11-2.01-.37c-.62-.26-1.16-.6-1.64-1.08-.48-.48-.85-1.08-1.11-1.73-.26-.65-.37-1.39-.37-2.15,0-1.7.51-3.06,1.56-4.08,1.05-1.02,2.44-1.53,4.17-1.53,1.3,0,2.38.28,3.23.91.85.6,1.39,1.47,1.62,2.55h-2.72c-.17-.45-.45-.77-.82-1.02-.4-.23-.85-.34-1.39-.34-.82,0-1.47.31-1.98.94s-.77,1.45-.77,2.47.26,1.81.77,2.41c.48.6,1.16.88,1.98.88.68,0,1.22-.14,1.64-.48.45-.31.74-.74.82-1.3h-2.49v-1.98h5.05v5.64h-1.79ZM55.79,29.43v-7.65h2.58v1.33c.31-.51.65-.91,1.08-1.13.45-.26.99-.37,1.64-.4v2.49c-.11-.03-.23-.03-.34-.03-.11-.03-.23-.03-.31-.03-.43,0-.77.06-1.05.17-.26.14-.48.31-.62.54-.11.17-.2.4-.23.68-.06.31-.06.79-.06,1.47v2.55h-2.69ZM64.97,25.6c0,.68.14,1.22.43,1.62.26.37.65.57,1.16.57s.94-.2,1.19-.57c.28-.4.43-.94.43-1.62s-.14-1.22-.43-1.62c-.26-.37-.68-.57-1.19-.57s-.91.2-1.19.57c-.26.37-.4.91-.4,1.62h0ZM62.2,25.6c0-1.3.4-2.3,1.16-3,.77-.74,1.84-1.11,3.2-1.11s2.44.37,3.23,1.11c.77.71,1.16,1.7,1.16,3s-.4,2.27-1.16,3c-.79.74-1.84,1.08-3.23,1.08s-2.44-.34-3.2-1.08c-.77-.71-1.16-1.73-1.16-3h0ZM80.54,21.77v7.65h-2.64v-1.05c-.31.43-.68.74-1.11.94-.4.2-.88.31-1.39.31-.91,0-1.62-.23-2.07-.65-.45-.43-.68-1.08-.68-1.93v-5.27h2.69v4.28c0,.62.09,1.08.26,1.3.17.23.45.37.88.37.48,0,.82-.14,1.05-.45.2-.28.31-.77.31-1.42v-4.08h2.69ZM82.78,32.52v-10.74h2.72v1.02c.28-.43.65-.74,1.05-.94s.85-.28,1.39-.28c1.02,0,1.87.37,2.49,1.11.65.74.99,1.7.99,2.89s-.34,2.21-.99,2.95c-.62.77-1.47,1.16-2.47,1.16-.54,0-1.02-.11-1.45-.31s-.77-.51-1.05-.88v4.03h-2.69ZM88.61,25.68c0-.68-.14-1.22-.43-1.56-.26-.37-.65-.54-1.19-.54-.51,0-.91.17-1.16.51-.26.37-.4.91-.4,1.59s.14,1.13.43,1.5c.28.34.68.51,1.19.51.48,0,.88-.17,1.13-.54.28-.34.43-.85.43-1.47h0Z"/>
      <path class="cls-1" d="M17.22,7.93c5.1,0,9.27,4.2,9.27,9.38s-4.17,9.35-9.27,9.35-9.27-4.2-9.27-9.35,4.17-9.38,9.27-9.38h0Z"/>
      <path class="cls-3" d="M8.41,24.52c.62,0,1.11.48,1.11,1.11s-.48,1.11-1.11,1.11-1.11-.51-1.11-1.11.51-1.11,1.11-1.11h0Z"/>
      <path class="cls-3" d="M26.61,24.52c.6,0,1.11.48,1.11,1.11s-.51,1.11-1.11,1.11-1.11-.51-1.11-1.11.48-1.11,1.11-1.11h0Z"/>
      <path class="cls-2" d="M17.36,6.97c5.64,0,10.23,4.59,10.23,10.23s-4.59,10.23-10.23,10.23-10.23-4.59-10.23-10.23,4.59-10.23,10.23-10.23h0ZM17.36,8.5c4.82,0,8.7,3.88,8.7,8.7s-3.88,8.7-8.7,8.7-8.7-3.91-8.7-8.7,3.91-8.7,8.7-8.7h0Z"/>
      <path class="cls-2" d="M13.28,17.17c0,3.51.06,6.38-.74,8.62-.62,1.79-1.87,3.12-3.37,4.76.62.4,1.28.74,1.93,1.05,1.64-1.59,2.75-3.6,3.29-6.24.45-2.27.45-5.05.45-8.19h-1.56Z"/>
      <path class="cls-2" d="M14.13,32.62c2.95-5.39,2.3-9.67,2.41-17.91h-1.3c-.06,11.45.28,12.22-3.46,17.18.77.31,1.56.54,2.35.74h0Z"/>
      <path class="cls-2" d="M17,10.43h.45v-2.15h.37v2.15h.51c-.09,6.18-.26,12.1.06,16.38.2,2.69.68,4.76,1.16,6.01-.68.09-1.39.14-2.1.14-.88,0-1.73-.06-2.55-.2.88-1.56,1.5-3.63,1.79-6.46.43-4.05.31-9.58.31-15.87h0Z"/>
      <rect class="cls-4" x="8.38" y="16.69" width="18.03" height=".65"/>
      <path class="cls-2" d="M14.98,8.78c1.11.54,3.37.68,4.62,0,.31-.03,1.05.2,1.05.34-2.32,1.02-4.48.85-6.72.03,0-.11.4-.34,1.05-.37h0Z"/>
      <path class="cls-2" d="M12.72,9.75c4.05,2.49,5.87,2.07,9.44-.03.23.17.43.28.65.43-4.54,2.69-6.24,2.58-10.89.03.28-.14.48-.28.79-.43h0Z"/>
      <path class="cls-2" d="M10.65,11.53c5.47,2.72,8.02,2.66,13.41,0,.17.2.28.34.43.54-5.73,2.72-7.85,2.98-14.4-.03.2-.17.37-.34.57-.51h0Z"/>
      <path class="cls-2" d="M9.31,13.38c5.02,2.58,10.01,2.95,15.96.03.09.23.17.45.26.68-6.26,2.64-10.69,2.58-16.58-.09.14-.23.26-.4.37-.62h0Z"/>
      <path class="cls-2" d="M9.31,20.72c4.99-2.58,9.98-2.95,15.87-.09.03,0,.28.14.31.14.09-.23.17-.45.26-.68-.03,0-.26-.11-.28-.11-6.24-2.61-10.66-2.55-16.53.09.14.23.26.43.37.65h0Z"/>
      <path class="cls-2" d="M10.48,22.65c4.25-2.55,8.53-2.95,13.61-.09.03,0,.23.14.26.14.06-.2.26-.4.34-.62-.03,0-.34-.17-.37-.17-5.33-2.61-9.1-2.55-14.12.06,0,.03-.11.09-.14.09.11.23.31.37.43.6h0Z"/>
      <path class="cls-2" d="M11.89,24.74c3.37-2.58,6.77-2.95,10.8-.09.03,0,.17.14.2.14.06-.23.11-.45.17-.68,0,0-.17-.11-.2-.11-4.22-2.61-7.26-2.55-11.23.09.09.23.17.43.26.65h0Z"/>
      <path class="cls-2" d="M14.45,25.59c1.13-.79,4.99-.99,6.21-.03.34.03.62-.31.62-.45-2.32-1.36-5.61-.99-7.85.11,0,.11.37.34,1.02.37h0Z"/>
      <path class="cls-2" d="M21.82,17.17c0,3.51.03,6.38.82,8.62.62,1.79,1.45,3.15,2.95,4.82-.03.03-.09.06-.11.09-.6.37-1.19.68-1.84.96-1.64-1.62-2.3-3.63-2.83-6.29-.45-2.27-.34-5.05-.34-8.19h1.36Z"/>
      <path class="cls-2" d="M22.44,32.14l-.14.03c-.6.2-1.19.37-1.81.51-2.69-5.36-1.39-9.67-1.76-17.97h1.3c.17,11.48-.85,12.27,2.86,17.26-.14.06-.31.11-.45.17h0Z"/>
      <path class="cls-3" d="M20.74,1.98c.91.17,1.79.45,2.61.79.48-.71,1.05-1.25,2.04-.85.99.43,1.93,1.02,2.83,1.76.45.4.23,1.08-.23,1.96.54.48,1.05,1.02,1.53,1.56.88-.37,1.59-.4,2.04.06.71.91,1.3,1.84,1.76,2.81.45.77-.31,1.33-1.02,1.87.31.85.57,1.73.74,2.61,1.11.03,1.9.37,1.93,1.28.03.94,0,1.87-.09,2.81-.06.94-.65,1.13-1.73,1.25-.14.99-.4,1.93-.71,2.86.71.43,1.39.85,1.05,1.62-.34,1.02-.82,2.01-1.39,2.98-.43.51-1.3.45-2.27.14-.94,1.13-2.01,2.15-3.2,3-.45.09-1.08-.51-1.02-.96,3.83-2.61,6.35-7,6.35-11.99,0-8.02-6.52-14.51-14.51-14.51S2.94,9.49,2.94,17.52c0,4.96,2.49,9.33,6.29,11.96-.06.57-.4.88-.91,1.05-1.13-.82-2.18-1.76-3.06-2.83-.88.37-1.59.4-2.04-.03-.65-.91-1.22-1.84-1.67-2.83-.4-.77.28-1.28.99-1.81-.4-1.08-.68-2.18-.85-3.37-.99-.09-1.45-.28-1.62-1.19-.09-.94-.09-1.87-.06-2.78.03-.91.79-1.22,1.84-1.25.2-1.08.54-2.1.94-3.06-.65-.51-1.25-.99-.82-1.73.48-.96,1.08-1.9,1.76-2.81.45-.45,1.13-.43,2.01-.06.6-.65,1.28-1.28,1.98-1.81-.31-.6-.54-1.22.09-1.81.88-.54,1.79-1.11,2.66-1.64.96-.43,1.56.14,2.07.88.94-.28,1.93-.51,2.92-.62-.11-.96.14-1.64.96-1.7,1.08-.09,2.15-.06,3.26,0,.74.17.94.91,1.05,1.93h0Z"/>
      <path class="cls-5" d="M7.02,22.87l-.26-.51c.17-.11.26-.23.31-.34.03-.14.03-.28-.03-.45-.09-.17-.17-.28-.28-.34-.09-.06-.2-.06-.28-.03-.09.03-.11.09-.14.14-.03.03-.06.11-.06.23,0,.06.03.23.06.48.06.31.06.54,0,.68-.09.23-.23.4-.45.48-.14.03-.28.06-.43.03-.14-.03-.28-.11-.4-.23-.11-.11-.23-.28-.28-.48-.14-.34-.17-.6-.09-.82.09-.23.23-.4.48-.51l.23.54c-.14.06-.2.17-.23.26-.03.09-.03.23.03.37.06.17.14.26.26.31.06.06.11.06.2.03.06-.03.09-.06.11-.14s.03-.28,0-.57c-.06-.28-.06-.48-.06-.65.03-.14.09-.28.17-.4.09-.11.2-.2.37-.26.14-.09.31-.09.48-.06.17.03.31.11.43.23.14.14.23.31.34.54.11.34.14.62.06.88-.06.23-.26.43-.54.6h0ZM4.04,20.21l-.09-.6,1.53-.2c.23-.03.4-.06.45-.09.11-.03.2-.11.26-.2.06-.11.09-.26.06-.4-.03-.17-.06-.28-.14-.34-.09-.09-.17-.11-.26-.11-.11,0-.28,0-.48.03l-1.56.23-.09-.57,1.47-.23c.34-.03.57-.06.74-.06.14.03.26.06.37.14.11.06.2.17.28.28.06.14.11.31.14.54.06.26.03.48,0,.62-.06.14-.11.26-.2.37-.09.09-.2.14-.28.2-.17.06-.4.11-.71.14l-1.5.23ZM6.56,16.83l-2.83-.31.11-.94c.03-.34.09-.57.11-.65.06-.17.17-.28.34-.4.14-.09.34-.11.57-.09.17.03.31.06.43.14.11.09.2.17.26.28.06.09.09.2.09.31.03.14,0,.34-.03.6l-.03.37,1.05.11-.06.57ZM4.27,15.98l.82.11.03-.31c.03-.23.03-.37,0-.45,0-.09-.06-.14-.11-.2-.06-.06-.11-.09-.2-.09-.11-.03-.2,0-.28.06-.06.06-.11.11-.14.2-.03.09-.06.2-.09.43l-.03.26ZM7.02,14.14l-2.64-1.02.74-1.98.45.17-.54,1.45.57.23.51-1.33.45.17-.51,1.33.74.28.57-1.5.45.2-.79,2.01ZM8.12,11.65l-2.24-1.76.74-.96c.2-.23.34-.4.48-.48.11-.06.26-.09.4-.09.17.03.31.09.43.17.17.14.28.31.31.48.03.2,0,.4-.14.6.14-.06.26-.09.4-.09.11,0,.28,0,.57.03l.62.06-.4.54-.77-.06h-.51c-.09,0-.14.03-.2.06-.06.03-.11.11-.2.23l-.09.09.96.71-.37.48ZM7.19,10.17l.26-.34c.17-.23.26-.37.28-.43.03-.06.03-.14,0-.2,0-.06-.06-.14-.11-.17-.09-.06-.17-.09-.23-.09-.09,0-.17.03-.23.09-.03.03-.14.14-.28.34l-.26.34.57.45ZM10.02,9.29l-1.67-2.3.48-.34.65.91.91-.65-.65-.91.45-.34,1.67,2.3-.48.34-.71-.99-.91.65.71.99-.45.34ZM11.87,6.29c-.11-.28-.14-.54-.11-.74,0-.17.06-.31.11-.45.06-.14.17-.28.26-.37.14-.14.34-.23.57-.31.4-.14.74-.11,1.08.06.31.14.54.45.71.91.14.43.14.79,0,1.13-.17.31-.45.57-.82.68-.43.14-.77.14-1.11-.03-.31-.17-.54-.45-.68-.88h0ZM12.4,6.06c.11.31.26.51.45.62s.4.14.62.06c.23-.09.37-.23.45-.43.09-.2.09-.45-.03-.77s-.26-.51-.45-.62c-.17-.11-.4-.11-.62-.06-.2.09-.37.23-.45.43s-.09.45.03.77h0ZM15.24,3.77l.57-.03.14,1.53c0,.26.03.4.06.48.03.11.09.2.2.26.09.06.23.09.37.09.17-.03.28-.06.37-.14.09-.06.11-.14.11-.26.03-.09,0-.26,0-.48l-.14-1.56.6-.06.11,1.5c.03.34.03.57,0,.71,0,.14-.06.28-.14.37-.06.11-.17.2-.31.26-.14.09-.31.11-.54.14-.26.03-.48,0-.62-.06-.14-.03-.26-.11-.34-.2-.09-.11-.14-.2-.2-.31-.03-.17-.09-.4-.11-.71l-.11-1.53ZM18.5,5.52l.57.09c-.03.2.03.34.09.45.09.11.23.17.4.2.17.06.31.06.43,0,.11-.06.17-.14.2-.26,0-.06,0-.11-.03-.17s-.09-.11-.17-.17c-.06-.03-.2-.11-.43-.23-.28-.14-.45-.28-.57-.4-.11-.2-.17-.4-.11-.62.03-.14.09-.28.2-.37.11-.11.26-.17.43-.23.17-.03.34,0,.57.03.34.09.6.23.71.43.14.2.2.43.14.68l-.57-.11c.03-.14,0-.26-.09-.34-.06-.09-.17-.14-.31-.17-.17-.06-.31-.03-.4,0-.09.03-.11.09-.14.17-.03.06,0,.11.06.17.06.09.2.2.45.31.26.11.45.23.57.34.11.09.2.2.23.34.06.14.06.31.03.48-.03.14-.11.28-.23.4-.14.14-.28.2-.45.23-.17.03-.4.03-.62-.03-.37-.09-.6-.23-.77-.43-.14-.2-.2-.45-.17-.79h0ZM21.14,7.14l1.28-2.55,1.9.94-.23.43-1.36-.68-.28.57,1.28.65-.23.43-1.28-.65-.34.71,1.42.71-.23.43-1.93-.96ZM26.15,9.38l.34-.31.82.94-.85.74c-.17,0-.37-.09-.57-.2-.23-.11-.43-.26-.57-.43-.2-.23-.31-.45-.37-.71-.06-.26-.03-.48.09-.74.09-.23.26-.43.45-.62.23-.2.45-.31.71-.37s.51-.03.77.06c.2.09.37.23.57.43.23.26.34.51.37.77.03.26-.06.48-.23.71l-.45-.37c.09-.11.11-.26.11-.4-.03-.14-.09-.26-.17-.4-.17-.17-.37-.28-.6-.28-.2,0-.43.09-.68.31-.26.2-.4.43-.43.65-.03.23.06.43.2.62.09.09.17.17.28.23.11.06.23.09.34.11l.28-.23-.43-.51ZM26.55,11.51l2.58-1.16.51,1.11c.11.28.2.48.2.62s-.03.28-.11.43c-.09.11-.2.23-.34.28-.2.09-.4.11-.57.06-.17-.06-.34-.2-.48-.4,0,.14-.03.26-.09.37s-.14.28-.28.48l-.37.57-.28-.62.4-.65c.14-.23.23-.37.26-.45.03-.06.06-.14.03-.2,0-.06-.03-.14-.09-.28l-.06-.09-1.08.48-.23-.54ZM28.28,11.36l.17.4c.11.23.2.4.26.45s.11.09.17.09.14,0,.23-.03c.09-.06.14-.11.17-.17.03-.09.03-.14.03-.26-.03-.03-.09-.17-.17-.37l-.2-.43-.65.31ZM29.1,13.83c.28-.06.54-.06.74,0,.17.03.31.11.43.2.14.09.26.2.34.31.09.17.17.34.23.57.06.43,0,.79-.23,1.08-.2.28-.54.48-.99.57-.45.09-.82.03-1.13-.17-.28-.2-.48-.51-.57-.91-.06-.43,0-.77.2-1.08.23-.28.54-.48.99-.57h0ZM29.21,14.43c-.31.06-.54.17-.68.34-.11.2-.17.4-.14.62.06.23.17.4.37.51.17.11.43.14.77.06.31-.06.54-.17.68-.34.11-.17.17-.37.11-.6-.03-.23-.14-.4-.34-.51-.17-.11-.43-.14-.77-.09h0ZM30.97,17.71l-.06.57-1.53-.17c-.26-.03-.4-.03-.48-.03-.11,0-.2.06-.28.14-.09.09-.14.2-.17.34,0,.17,0,.28.06.4.06.09.14.14.23.17.11.03.26.06.48.09l1.56.17-.06.57-1.47-.17c-.34-.03-.6-.09-.74-.11-.11-.06-.23-.14-.31-.23-.11-.09-.17-.2-.2-.37-.06-.14-.06-.31-.03-.54.03-.28.09-.48.17-.6.09-.14.17-.23.28-.31.11-.06.23-.11.34-.11.14-.03.4,0,.71.03l1.5.17ZM27.71,20.32l2.64,1.02-.31.88c-.14.31-.23.54-.28.62-.11.11-.26.23-.43.28-.17.03-.34.03-.57-.06-.17-.06-.28-.14-.37-.26-.09-.09-.14-.2-.17-.31-.03-.11-.06-.23-.03-.34.03-.11.09-.31.17-.57l.14-.34-1.02-.4.23-.54ZM29.7,21.71l-.74-.28-.11.28c-.09.23-.14.37-.14.45s.03.14.09.23c.03.06.09.09.17.11.11.06.2.06.28.03.09-.03.14-.09.2-.17.03-.06.09-.2.17-.4l.09-.26Z"/>
    </g>
  </g>
</svg>