<?xml version="1.0" encoding="UTF-8"?>
<svg id="Layer_2" data-name="Layer 2" xmlns="http://www.w3.org/2000/svg" viewBox="0 0 363.59 106.02">
  <defs>
    <style>
      .cls-1 {
        fill: #ff2b06;
      }
    </style>
  </defs>
  <g id="Layer_1-2" data-name="Layer 1">
    <g>
      <g>
        <path class="cls-1" d="M29.65,27.32H0V.2h91.88v27.12h-29.64v78.7H29.65V27.32Z"/>
        <path class="cls-1" d="M96.94.2h89.19v27.12h-56.59v13.19h56.59v25.2h-56.59v13.19h56.6v27.12h-89.21V.2Z"/>
        <path class="cls-1" d="M191.62.2h53.5c35.27,0,47.73,26.08,47.73,52.75,0,32.47-17.19,53.06-54.1,53.06h-47.13V.2ZM224.22,78.9h12.75c20.31,0,23.28-16.46,23.28-26.4,0-6.66-2.09-25.18-25.65-25.18h-10.37v51.58Z"/>
      </g>
      <path class="cls-1" d="M339.7,65.24l-9.95-16.49-9.7,16.49h-23.89l22.68-33.35L297.01,0h23.89l8.85,15.77,9.1-15.77h23.89l-21.83,31.9,22.68,33.35h-23.89Z"/>
    </g>
  </g>
</svg>