<svg width="38" height="37" viewBox="0 0 38 37" fill="none" xmlns="http://www.w3.org/2000/svg">
<path d="M34.7644 0L22.8151 16.0034L37.9689 36.2612H27.1875L17.4159 23.1987L7.57691 36.2612H3.20448L15.1749 20.2557L0 0H10.7814L20.5698 13.0266L20.69 12.9381L30.392 0H34.7644ZM32.7426 33.6491L32.652 33.4784L9.49116 2.61207H5.22414L28.5093 33.6491H32.7426Z" fill="white"/>
<path d="M23.4264 15.1833L34.7644 0H30.392L23.0786 9.75469L23.0765 9.75679L20.69 12.9402L20.6858 12.9423L18.9633 15.236L21.1728 18.1812L23.4264 15.1833Z" fill="white"/>
<path d="M19.0371 21.0231L16.8298 18.08L8.90719 28.6379L3.20448 36.2612H7.57691L19.0371 21.0231Z" fill="white"/>
</svg>
