<?xml version="1.0" encoding="UTF-8"?>
<!DOCTYPE svg PUBLIC "-//W3C//DTD SVG 1.1//EN" "http://www.w3.org/Graphics/SVG/1.1/DTD/svg11.dtd">
<!-- Creator: CorelDRAW -->
<svg xmlns="http://www.w3.org/2000/svg" xml:space="preserve" width="149.589mm" height="119.767mm" version="1.1" style="shape-rendering:geometricPrecision; text-rendering:geometricPrecision; image-rendering:optimizeQuality; fill-rule:evenodd; clip-rule:evenodd"
viewBox="0 0 3458.65 2769.15"
 xmlns:xlink="http://www.w3.org/1999/xlink"
 xmlns:xodm="http://www.corel.com/coreldraw/odm/2003">
 <defs>
  <style type="text/css">
   <![CDATA[
    .str0 {stroke:#373435;stroke-width:1.76;stroke-miterlimit:2.61313}
    .fil2 {fill:#F47D35}
    .fil3 {fill:#079551}
    .fil0 {fill:#FEFEFE;fill-rule:nonzero}
    .fil5 {fill:#F47D35;fill-rule:nonzero}
    .fil1 {fill:#363434;fill-rule:nonzero}
    .fil4 {fill:#079551;fill-rule:nonzero}
   ]]>
  </style>
 </defs>
 <g id="Layer_x0020_1">
  <metadata id="CorelCorpID_0Corel-Layer"/>
  <g id="_2158949023424">
   <polygon class="fil0" points="2121.26,197.09 2121.26,409.18 2369.7,409.18 2369.7,197.09 "/>
   <path class="fil1" d="M137.28 2197.74l0 -157.79 -137.28 -217.05 88.75 0 88.23 148.28 86.4 -148.28 87.19 0 -137.81 217.57 0 157.27 -75.49 0zm187.14 -139.64c0,-23.82 5.94,-46.95 17.63,-69.29 11.78,-22.25 28.45,-39.36 50.01,-51.05 21.56,-11.78 45.64,-17.72 72.26,-17.72 41.02,0 74.71,13.35 100.98,40.05 26.27,26.71 39.36,60.4 39.36,101.15 0,41.02 -13.27,75.05 -39.71,102.11 -26.53,27.06 -59.87,40.5 -100.11,40.5 -24.96,0 -48.61,-5.58 -71.22,-16.84 -22.6,-11.26 -39.8,-27.75 -51.58,-49.48 -11.69,-21.73 -17.63,-48.18 -17.63,-79.42zm73.66 3.85c0,26.96 6.37,47.56 19.2,61.88 12.74,14.31 28.54,21.47 47.3,21.47 18.76,0 34.47,-7.16 47.13,-21.47 12.74,-14.32 19.12,-35.09 19.12,-62.41 0,-26.53 -6.37,-47.04 -19.12,-61.35 -12.65,-14.31 -28.36,-21.47 -47.13,-21.47 -18.77,0 -34.56,7.16 -47.3,21.47 -12.83,14.32 -19.2,35 -19.2,61.88zm433.86 135.79l0 -40.67c-9.95,14.49 -22.95,25.92 -39.01,34.3 -16.15,8.29 -33.16,12.48 -51.05,12.48 -18.24,0 -34.56,-4.02 -49.05,-11.95 -14.48,-8.03 -24.95,-19.29 -31.5,-33.78 -6.46,-14.48 -9.69,-34.55 -9.69,-60.13l0 -171.76 71.83 0 0 124.71c0,38.23 1.31,61.62 4.02,70.26 2.62,8.55 7.42,15.36 14.4,20.42 6.98,5.06 15.88,7.51 26.62,7.51 12.3,0 23.3,-3.32 32.99,-10.04 9.68,-6.81 16.32,-15.1 19.9,-25.05 3.57,-10.04 5.41,-34.47 5.41,-73.31l0 -114.5 71.83 0 0 271.51 -66.68 0zm380.37 0l-71.83 0 0 -138.59c0,-29.33 -1.57,-48.26 -4.63,-56.91 -3.05,-8.55 -8.12,-15.27 -15.01,-20.07 -6.9,-4.71 -15.19,-7.15 -24.88,-7.15 -12.48,0 -23.65,3.4 -33.51,10.21 -9.86,6.9 -16.67,15.88 -20.34,27.14 -3.66,11.26 -5.5,32.03 -5.5,62.4l0 122.97 -71.83 0 0 -271.51 66.68 0 0 39.89c23.74,-30.72 53.58,-46.08 89.54,-46.08 15.79,0 30.37,2.88 43.46,8.55 13.09,5.75 23.04,13 29.76,21.9 6.72,8.9 11.43,18.94 14.05,30.2 2.71,11.26 4.02,27.32 4.02,48.26l0 168.78zm58.49 17.89l82.04 9.95c1.4,9.6 4.54,16.15 9.43,19.72 6.81,5.15 17.63,7.68 32.21,7.68 18.76,0 32.82,-2.79 42.24,-8.46 6.29,-3.75 11.09,-9.77 14.32,-18.15 2.18,-5.94 3.32,-16.93 3.32,-32.99l0 -39.62c-21.47,29.32 -48.62,43.99 -81.34,43.99 -36.48,0 -65.37,-15.44 -86.66,-46.25 -16.67,-24.43 -25.04,-54.72 -25.04,-91.02 0,-45.56 10.99,-80.29 32.9,-104.38 21.91,-24 49.13,-36.05 81.69,-36.05 33.51,0 61.27,14.75 83.08,44.24l0 -38.05 67.21 0 0 243.66c0,32.03 -2.62,55.94 -7.94,71.83 -5.24,15.88 -12.65,28.27 -22.16,37.35 -9.6,8.98 -22.34,16.06 -38.23,21.2 -15.97,5.06 -36.14,7.68 -60.48,7.68 -46.08,0 -78.73,-7.94 -97.92,-23.65 -19.29,-15.8 -28.89,-35.79 -28.89,-59.96 0,-2.45 0.09,-5.33 0.26,-8.73zm64.14 -159.27c0,28.8 5.59,49.92 16.76,63.28 11.17,13.35 24.87,20.07 41.28,20.07 17.54,0 32.37,-6.9 44.51,-20.6 12.04,-13.7 18.15,-34.04 18.15,-61.01 0,-28.1 -5.85,-48.95 -17.45,-62.57 -11.53,-13.7 -26.19,-20.51 -43.9,-20.51 -17.28,0 -31.42,6.72 -42.59,20.07 -11.17,13.44 -16.76,33.77 -16.76,61.26zm398.26 141.38l0 -374.83 75.67 0 0 374.83 -75.67 0zm386.57 0l-71.83 0 0 -138.59c0,-29.33 -1.57,-48.26 -4.63,-56.91 -3.05,-8.55 -8.12,-15.27 -15.01,-20.07 -6.9,-4.71 -15.19,-7.15 -24.88,-7.15 -12.47,0 -23.65,3.4 -33.51,10.21 -9.86,6.9 -16.67,15.88 -20.34,27.14 -3.66,11.26 -5.5,32.03 -5.5,62.4l0 122.97 -71.83 0 0 -271.51 66.68 0 0 39.89c23.74,-30.72 53.58,-46.08 89.55,-46.08 15.79,0 30.37,2.88 43.46,8.55 13.09,5.75 23.04,13 29.76,21.9 6.73,8.9 11.44,18.94 14.05,30.2 2.71,11.26 4.02,27.32 4.02,48.26l0 168.78zm314.11 0l-66.67 0 0 -39.88c-11.08,15.54 -24.18,27.05 -39.27,34.64 -15.1,7.59 -30.29,11.35 -45.64,11.35 -31.25,0 -57.95,-12.56 -80.21,-37.7 -22.17,-25.13 -33.34,-60.22 -33.34,-105.17 0,-46.08 10.82,-81.07 32.46,-104.99 21.65,-23.91 49.05,-35.96 82.13,-35.96 30.28,0 56.55,12.65 78.72,37.87l0 -135.01 71.83 0 0 374.83zm-191.74 -141.64c0,28.97 4.01,49.92 12.04,62.92 11.53,18.68 27.75,28.11 48.53,28.11 16.58,0 30.64,-7.07 42.24,-21.12 11.52,-14.05 17.36,-35.09 17.36,-63.01 0,-31.15 -5.67,-53.67 -16.85,-67.37 -11.26,-13.71 -25.66,-20.6 -43.28,-20.6 -17.02,0 -31.24,6.81 -42.77,20.34 -11.52,13.53 -17.28,33.77 -17.28,60.74zm254.86 -166.69l0 -66.5 71.83 0 0 66.5 -71.83 0zm0 308.33l0 -271.51 71.83 0 0 271.51 -71.83 0zm191.41 -188.68l-65.2 -11.78c7.33,-26.27 19.9,-45.64 37.79,-58.3 17.98,-12.56 44.52,-18.94 79.77,-18.94 32.12,0 55.94,3.84 71.65,11.43 15.62,7.6 26.71,17.2 33.08,28.89 6.37,11.7 9.6,33.08 9.6,64.32l-0.79 83.86c0,23.82 1.14,41.46 3.49,52.8 2.27,11.26 6.63,23.47 12.92,36.39l-71.13 0c-1.84,-4.8 -4.19,-11.87 -6.9,-21.21 -1.13,-4.27 -2,-7.07 -2.53,-8.46 -12.31,11.96 -25.4,20.86 -39.36,26.88 -13.96,5.94 -28.89,8.9 -44.77,8.9 -27.93,0 -50.01,-7.59 -66.06,-22.69 -16.15,-15.19 -24.18,-34.39 -24.18,-57.6 0,-15.27 3.67,-28.98 11,-41.02 7.34,-12.04 17.63,-21.21 30.81,-27.58 13.18,-6.37 32.29,-11.95 57.16,-16.75 33.52,-6.29 56.82,-12.22 69.73,-17.63l0 -7.16c0,-13.87 -3.4,-23.65 -10.21,-29.58 -6.81,-5.85 -19.63,-8.82 -38.58,-8.82 -12.83,0 -22.77,2.53 -29.94,7.59 -7.15,4.97 -12.91,13.79 -17.36,26.44zm96.09 58.3c-9.16,3.06 -23.74,6.72 -43.72,11 -19.9,4.28 -32.9,8.46 -39.1,12.48 -9.34,6.72 -14.05,15.09 -14.05,25.31 0,10.12 3.75,18.76 11.26,26.09 7.51,7.34 17.02,11 28.63,11 13,0 25.31,-4.28 37.09,-12.74 8.73,-6.46 14.4,-14.4 17.11,-23.83 1.92,-6.11 2.79,-17.8 2.79,-34.99l0 -14.32zm380.71 130.39l-71.83 0 0 -138.59c0,-29.33 -1.57,-48.26 -4.63,-56.91 -3.05,-8.55 -8.12,-15.27 -15.01,-20.07 -6.9,-4.71 -15.19,-7.15 -24.88,-7.15 -12.47,0 -23.65,3.4 -33.51,10.21 -9.86,6.9 -16.67,15.88 -20.34,27.14 -3.67,11.26 -5.5,32.03 -5.5,62.4l0 122.97 -71.83 0 0 -271.51 66.68 0 0 39.89c23.74,-30.72 53.58,-46.08 89.54,-46.08 15.79,0 30.37,2.88 43.46,8.55 13.09,5.75 23.04,13 29.76,21.9 6.72,8.9 11.43,18.94 14.05,30.2 2.71,11.26 4.02,27.32 4.02,48.26l0 168.78zm39.82 -77.5l72.09 -11c3.05,13.96 9.25,24.61 18.67,31.85 9.34,7.24 22.43,10.91 39.36,10.91 18.59,0 32.55,-3.4 41.89,-10.29 6.37,-4.72 9.51,-11.17 9.51,-19.11 0,-5.5 -1.75,-10.04 -5.15,-13.62 -3.58,-3.4 -11.61,-6.55 -24,-9.42 -57.95,-12.74 -94.7,-24.43 -110.23,-35 -21.47,-14.66 -32.21,-35.08 -32.21,-61.18 0,-23.47 9.25,-43.29 27.84,-59.26 18.58,-16.06 47.39,-24.08 86.4,-24.08 37.18,0 64.85,6.11 82.91,18.15 18.07,12.13 30.46,30.02 37.27,53.75l-67.73 12.48c-2.88,-10.55 -8.38,-18.67 -16.5,-24.26 -8.12,-5.67 -19.64,-8.46 -34.65,-8.46 -18.94,0 -32.46,2.62 -40.67,7.94 -5.41,3.75 -8.12,8.64 -8.12,14.57 0,5.14 2.36,9.43 7.16,13 6.46,4.8 28.8,11.53 67.11,20.25 38.23,8.64 64.93,19.29 80.12,31.94 15.01,12.83 22.52,30.63 22.52,53.41 0,24.87 -10.38,46.34 -31.25,64.23 -20.77,17.89 -51.49,26.79 -92.24,26.79 -37.01,0 -66.24,-7.51 -87.89,-22.52 -21.56,-14.93 -35.61,-35.35 -42.24,-61.09z"/>
   <polygon class="fil2" points="15.52,2349.55 1708.56,2349.55 1708.56,2769.15 15.52,2769.15 "/>
   <polygon class="fil3" points="1764.12,2349.55 3457.15,2349.55 3457.15,2769.15 1764.12,2769.15 "/>
   <path class="fil0" d="M211.96 2689.8l-62.25 -260.85 53.87 0 39.36 179.17 47.68 -179.17 62.62 0 45.73 182.2 40.02 -182.2 53.03 0 -63.35 260.85 -55.88 0 -51.93 -195.02 -51.81 195.02 -57.09 0zm301.56 0l0 -260.85 193.38 0 0 44.15 -140.73 0 0 57.82 130.95 0 0 43.91 -130.95 0 0 71 145.71 0 0 43.97 -198.37 0zm505.82 -95.9l51.02 16.16c-7.84,28.49 -20.83,49.62 -39.05,63.47 -18.16,13.79 -41.3,20.71 -69.3,20.71 -34.62,0 -63.1,-11.84 -85.39,-35.47 -22.29,-23.69 -33.47,-56.06 -33.47,-97.06 0,-43.42 11.24,-77.13 33.65,-101.18 22.42,-23.99 51.87,-36.02 88.43,-36.02 31.89,0 57.82,9.41 77.74,28.3 11.91,11.11 20.77,27.15 26.72,48.04l-52.17 12.45c-3.04,-13.54 -9.47,-24.24 -19.32,-32.07 -9.78,-7.84 -21.68,-11.72 -35.65,-11.72 -19.31,0 -35.04,6.92 -47.07,20.83 -12.03,13.85 -18.04,36.32 -18.04,67.42 0,32.98 5.89,56.48 17.8,70.45 11.84,14.03 27.27,21.01 46.22,21.01 14.03,0 26.05,-4.43 36.14,-13.37 10.08,-8.86 17.31,-22.89 21.74,-41.97zm326.1 95.9l-57.34 0 -22.77 -59.28 -104.28 0 -21.5 59.28 -55.87 0 101.61 -260.85 55.69 0 104.47 260.85zm-96.99 -103.18l-35.96 -96.81 -35.23 96.81 71.19 0zm120.02 103.18l0 -260.85 51.26 0 106.77 174.19 0 -174.19 48.95 0 0 260.85 -52.9 0 -105.14 -170.12 0 170.12 -48.95 0z"/>
   <path class="fil0" d="M1903.73 2694.24l-62.25 -260.86 53.87 0 39.36 179.17 47.68 -179.17 62.62 0 45.73 182.2 40.02 -182.2 53.02 0 -63.35 260.86 -55.88 0 -51.93 -195.02 -51.81 195.02 -57.09 0zm301.56 0l0 -260.86 193.38 0 0 44.16 -140.73 0 0 57.82 130.95 0 0 43.91 -130.95 0 0 71 145.71 0 0 43.97 -198.37 0zm375.91 0l-62.25 -260.86 53.87 0 39.36 179.17 47.68 -179.17 62.62 0 45.73 182.2 40.02 -182.2 53.02 0 -63.35 260.86 -55.88 0 -51.93 -195.02 -51.81 195.02 -57.09 0zm299.93 0l0 -260.86 52.65 0 0 260.86 -52.65 0zm98.89 0l0 -258.73 52.66 0 0 214.76 130.94 0 0 43.97 -183.6 0zm217.21 0l0 -258.73 52.66 0 0 214.76 130.94 0 0 43.97 -183.6 0z"/>
   <polygon class="fil1" points="2121.25,1703.04 2121.25,605.33 2369.69,605.33 2369.69,1703.04 "/>
   <polygon class="fil1 str0" points="1326.41,1702.99 1326.42,889.45 807.25,0.88 1094.12,0.88 1464.38,607.91 1846.02,0.88 2113.54,0.88 1596.05,891.6 1596.05,1702.99 "/>
   <polygon class="fil4" points="2121.28,407.72 2121.28,605.33 2369.67,605.33 2369.67,407.72 "/>
   <polygon class="fil5" points="2121.26,0.88 2121.26,198.49 2369.69,198.49 2369.69,0.88 "/>
  </g>
 </g>
</svg>
