<?xml version="1.0" encoding="UTF-8"?>
<svg id="Layer_2" data-name="Layer 2" xmlns="http://www.w3.org/2000/svg" viewBox="0 0 666.14 44.66">
  <defs>
    <style>
      .cls-1 {
        fill: #7fa63f;
      }
    </style>
  </defs>
  <g id="Layer_1-2" data-name="Layer 1">
    <path d="M360.98,14.73l-8,15.2h10.96l11.04-14.95.21-2.44c-.11-.32-.97-.92-1.16-.92h-41.41l-.53-.85,5.8-10.15,43.8-.07c7.3.83,10.11,5.59,9.18,12.6-.56,4.24-8.64,16.51-11.52,20.35-4.46,5.97-9.78,9.74-17.49,10.27-8.13.56-22.26.7-30.3,0-1.1-.1-3.17-.17-2.95-1.54l15.83-27.5h16.53Z"/>
    <path class="cls-1" d="M179.87,44.45l-.47-.8L202.81.54c.29-.3.67-.29,1.05-.34,1.63-.22,7.09-.21,8.73,0,.49.06.89.07,1.23.5l3.97,19.9c.49.06.76-.38,1.02-.72,3.93-5.04,6.79-13.04,10.69-18.41.34-.47.73-.88,1.16-1.27h13.92c1.32,0-.45,2.98-.69,3.46-5.84,11.78-13.05,24.7-19.61,36.16-.49.86-2.06,3.94-2.65,4.28-1.8,1.07-11.8,0-14.47.15-1.46-1.36-4.06-13.97-5.04-13.99l-8.35,14.16h-13.92Z"/>
    <path d="M494.49.63l25.99-.04c5.27,1.29,8.36,5.65,6.64,11.02-.89,2.79-5.98,9.94-8.61,11.14-.69.32-2.12.11-2.33.81,3.34,6.77-2.16,15.69-8.47,18.52s-16.43,1.44-23.36,1.3c-4.82-.1-9.66.23-14.47-.14l-.29-.98L493.26,1.83l1.23-1.2ZM503.46,11.27l-1.91,3.29.51.52h5.92c2.04,0,3.14-2.28,1.74-3.8h-6.26ZM493.37,30.97h6.61c.61,0,1.89-1.5,1.89-2.25,0-2.84-5.05-1.85-6.94-1.73l-1.94,3.27.37.7Z"/>
    <path d="M586.1,25.79l-4,.35-11.14,17.62h-13.22c-.21,0-.74-.71-.38-1.06l16.71-28.34,23.68-.33c1.96-.42,2.04-2.76,0-2.76h-22.09c-.08-.6.04-1.08.27-1.63.61-1.45,4.16-7.56,5.13-8.72.22-.26.38-.55.75-.64,7.59.13,15.34-.4,22.91-.08,1.76.07,4.57.17,6.22.39,6.88.92,6.72,8.76,4.44,13.68-2.01,4.34-6.91,9.76-11.55,11.33-.97.33-3.83.59-4.02.85-.87,1.23.62,3.82,2.11,3.82h7.65l.37,1.05-6.54,11.83c-5.76.99-12.43-.03-15.41-5.61-.46-.86-1.9-4.98-1.9-5.71v-6.05Z"/>
    <path class="cls-1" d="M264.6,11.27c-.11-.71.12-1.24.38-1.87.43-1.01,4.92-8.62,5.41-8.79l28.14-.07c13.58,3.93,5.19,19.22-3.2,24.14-2.4,1.41-4.03,1.31-6.64,1.87-1.33,1.49.55,4.41,2.18,4.41h7.83l-.27,1.63-5.79,10.84-.73.31c-2.6-.18-5.02.5-7.55-.09-6.29-1.46-9.24-7.12-9.35-13.21-.03-1.47.86-2.82-.02-4.27h-3.89s-11.23,17.89-11.23,17.89c-4.47.66-9.57.57-14.06.03l16.71-29.18c1.16-1,2.31-.13,3.64-.16,2.82-.06,5.58,0,8.34-.01,2.1,0,12.38.15,13.42-.87,1.25-1.23-.76-2.6-1.92-2.6h-21.4Z"/>
    <path class="cls-1" d="M178.83,30.97l.47.8-7.26,12.5c-5.38-.21-12.58.94-17.76.01-6.29-1.13-14.81-6.62-14.57-13.78,1.98-11.3,11.08-20.16,16.57-29.95,11.68-.27,23.41.37,35.09.02,1.49-.05,3.13-.79,4.7-.2.4.27.34.55.28.97-.09.59-5.08,9.48-5.6,9.7-.47.2-.97.2-1.47.24-7.16.6-15.61-.81-22.63-.01-1.34.15-3.7,1.02-2.62,2.6,8.07.87,16.26.24,24.38.67.52.3-.11,1.4-.3,1.8-.56,1.17-4.71,8.43-5.3,8.9-.64.51-1.12.48-1.88.55-7.73.71-16.46-.63-24.3.07-3.02,1.52-.64,5.1,2.37,5.1h19.83Z"/>
    <path d="M489.02.56c.56.57-1.62,3.99-2.03,4.72-5.01,9.14-11.16,19.86-16.83,28.55-4.95,7.6-13.78,9.66-22.32,9.88-7.4.2-18.59,1.59-20.53-7.82-.47-2.26-.31-4.65.3-6.87,1.79-6.52,5.76-12.2,9.28-17.87.92-1.48,6.12-10.08,6.9-10.43,4.06-.1,8.65-.47,12.71-.19.41.03,1.83.13,1.93.58-.02,1.27-.8,2.37-1.36,3.47-3.77,7.51-9.4,14.84-13,22.34-.51,1.07-1.84,3.44-.04,3.97,3.22.95,11.22.86,13.27-2.57,0,0,16.58-27.76,16.58-27.76h15.14Z"/>
    <path d="M544,14.04h23.83l.53.85-6.62,10.73-24.45.25c-2.89.69-.68,4.76,1.31,4.76h20.7c.09.5-.09.85-.27,1.28-.79,1.86-3.25,5.45-4.45,7.33-.7,1.09-2.39,4.31-3.46,4.51-5.98,1.16-13.73,1-19.57-.88-5.07-1.63-10.68-5.96-10.89-11.72-.23-6.59,7.71-17.87,11.49-23.52,1.12-1.67,2.87-4.64,4.02-6.02.23-.28,1.14-1.05,1.38-1.05h37.23c.23,0,.74.76.46,1.13l-5.93,9.67c-.46.25-.96.22-1.47.27-6.65.61-15.65-1.01-21.92,0-1.31.21-2.16,1.03-1.93,2.4Z"/>
    <path class="cls-1" d="M96.89.56v42.68l-.52.52h-12.35c-.64-1.57.92-7-.69-7.78-.67-.32-12.58-.34-14.11-.19-.6.06-1.14-.02-1.57.52l-6.41,7.45h-15.14l.7-1.9L82.45.56h14.44ZM78.45,24.06l4.72-.32c.2-.79.46-5.56-.37-5.54-.66.76-4.77,5.29-4.35,5.86Z"/>
    <path d="M425.35,43.41c-3.64-.05-7.69.77-11.32.35-.78-.09-1.38-.26-1.91-.87v-6.57l-.52-.52h-14.96c-1.98,1.43-5.23,7.39-7.38,7.87-1.89.42-11.29.31-13.47.04-.43-.05-.82-.28-1.25-.32l.7-1.55L410.89.89c.3-.29.66-.3,1.04-.35,1.31-.17,12.07-.1,12.71.2.16.08.7.63.7.69v41.98ZM412.13,18.53c-.67-.16-.67.24-.98.58-.54.59-3.53,4.32-3.55,4.77,1.4.19,3.39.61,4.53-.34v-5.01Z"/>
    <path class="cls-1" d="M114.56.64l.6,25.5c1.46-.83,2.72-2.5,3.83-3.8,6.07-7.1,11.78-14.55,17.94-21.58,1.73-1.25,6.71-.27,8.83-.18s4.67-.27,6.63-.01c.48.06.6-.19.51.51l-36.69,42.7-14.13.54-.71-.44-.25-42.72c.09-.31.33-.62.62-.76.74-.36,9.5-.29,10.98-.19.63.05,1.28.07,1.83.44Z"/>
    <path d="M630.99,12.31h-12c-.09,0-.86-.38-.9-.58-.3-1.42,5.24-9.54,6.46-11.17h41.06l.53.85-5.43,10.18c-1.58,1-9,.04-11.47.36-.61.08-1.01.16-1.39.69l-17.6,30.21-.97.76c-4.33-.14-9.94.71-14.13.17-.67-.09-1.17-.21-1.46-.88l17.31-30.59Z"/>
    <path class="cls-1" d="M28.34,31.66h20.01l.49.83-5.94,10.36-1.24.84-36.81.07c-6.99-1.71-5.54-8.25-1.22-12.27,7.2-6.7,19.81-11.01,28.01-16.75h23.31l.35.69c-7.24,4.91-15.34,8.72-22.9,13.2-1.01.6-2.64,1.41-3.49,2.06-.39.3-.72.34-.58.98Z"/>
    <polygon class="cls-1" points="225.63 44.1 250.51 .22 264.77 .22 265.16 .93 264.66 2.18 241.46 44.1 225.63 44.1"/>
    <path class="cls-1" d="M15.47,11.62c-.73-.74,4.74-9.85,5.65-11.17,6.3-.35,12.56.16,18.9.13,6.5-.03,13.62-.98,20.18-.37,3.22.3,5.21,2.75,4.6,5.98-.39,2.05-2.9,3.94-4.27,5.44H15.47Z"/>
  </g>
</svg>